<?xml version="1.0" encoding="utf-8"?>
<!-- Generator: Adobe Illustrator 27.5.0, SVG Export Plug-In . SVG Version: 6.00 Build 0)  -->
<svg version="1.1" xmlns="http://www.w3.org/2000/svg" xmlns:xlink="http://www.w3.org/1999/xlink" x="0px" y="0px"
	 viewBox="0 0 500 500" style="enable-background:new 0 0 500 500;" xml:space="preserve">
<g id="BACKGROUND">
	<path style="fill:none;" d="M-0.002,0v500h500V0H-0.002z M387.328,415.29c1.82-0.9,3.62-1.88,5.41-2.94
		c1.8-1.06,3.55-2.17,5.26-3.33c19.55,0.61,32.66,1.72,32.66,3C430.658,413.52,412.629,414.79,387.328,415.29z"/>
</g>
<g id="OBJECTS">
	<g>
		<path style="opacity:0.62;fill-rule:evenodd;clip-rule:evenodd;fill:#EEF5FF;" d="M91.149,170.48
			c-8.82-4.17-27.73,6.7-40.54,25.63c-11.34,16.74-17.17,35.86-8.7,45.62c6.39,7.36,25.08,8.67,43.45-21.67
			C103.728,189.72,97.658,173.55,91.149,170.48z M460.149,220.06c-6.15-18.12-21.43-29.55-29.52-26.18
			c-8.09,3.37-13.08,17.94-6.07,39.32c5.4,16.46,20.57,29.59,30.95,25.75C468.268,254.24,465.419,235.6,460.149,220.06z
			 M452.498,313.83c-0.1-0.48-0.21-0.96-0.33-1.44c-0.14-0.57-0.29-1.15-0.45-1.71c-0.11-0.4-0.23-0.8-0.35-1.19
			c-0.01-0.05-0.03-0.1-0.04-0.15c-0.15-0.48-0.31-0.95-0.47-1.42c-0.13-0.37-0.26-0.75-0.4-1.13c-0.09-0.23-0.17-0.47-0.26-0.7
			c-0.14-0.34-0.27-0.69-0.41-1.03c-0.15-0.38-0.31-0.75-0.47-1.12c-0.24-0.57-0.49-1.13-0.75-1.69
			c-9.46-20.33-30.01-36.35-39.26-53.6c-13.59-25.34-10.47-51.18-24.61-69.4c-11.43-14.75-31.32-19.52-58.06-27.5
			c-5.02-1.5-10.27-3.11-15.76-4.92c-4.38-1.44-8.9-3.01-13.56-4.75c-41.68-15.56-48.02-33.49-86.2-36.98
			c-37.41-3.43-66.35,13.6-81.99,41.61c-14.81,26.53-4.44,67.46-29.17,94.81c-16.57,18.32-41.94,32.17-54.16,60.73
			c-0.15,0.33-0.29,0.66-0.42,0.99c-0.21,0.5-0.41,1.01-0.61,1.52c-0.44,1.13-0.86,2.29-1.26,3.47c-0.18,0.51-0.35,1.03-0.51,1.56
			c-0.11,0.33-0.22,0.67-0.32,1.02c-0.15,0.49-0.29,0.99-0.43,1.49c-0.18,0.63-0.36,1.27-0.52,1.92c-0.17,0.65-0.33,1.31-0.49,1.97
			c-0.17,0.76-0.34,1.53-0.5,2.31c-0.12,0.58-0.23,1.16-0.34,1.75c-0.11,0.59-0.22,1.19-0.32,1.79c-0.04,0.24-0.07,0.47-0.11,0.71
			c-0.08,0.47-0.15,0.94-0.21,1.42c-0.03,0.16-0.05,0.32-0.07,0.49c-0.05,0.37-0.1,0.74-0.15,1.12c-0.05,0.4-0.1,0.81-0.14,1.22
			c-0.07,0.63-0.14,1.26-0.2,1.9c-3.59,38.03,14.06,85.37,60.76,103.45s89.39-10.04,136.6-6.53c45.48,3.39,102.63,33.36,150.77,9.47
			c1.82-0.9,3.62-1.88,5.41-2.94c1.8-1.06,3.55-2.17,5.26-3.33C443.098,398.65,457.818,339,452.498,313.83z"/>
		<path style="fill-rule:evenodd;clip-rule:evenodd;fill:#CEDDEF;" d="M397.998,429.02c-1.71,1.16-3.46,2.27-5.26,3.33
			c-1.79,1.06-3.59,2.04-5.41,2.94c-48.14,23.89-105.29-6.08-150.77-9.47c-47.21-3.51-89.9,24.61-136.6,6.53
			s-64.35-65.42-60.76-103.45c0.06-0.64,0.13-1.27,0.2-1.9c0.04-0.41,0.09-0.82,0.14-1.22c0.05-0.38,0.1-0.75,0.15-1.12
			c0.02-0.17,0.04-0.33,0.07-0.49c0.06-0.48,0.13-0.95,0.21-1.42c0.04-0.24,0.07-0.47,0.11-0.71c0.1-0.6,0.21-1.2,0.32-1.79
			c0.11-0.59,0.22-1.17,0.34-1.75c0.16-0.78,0.33-1.55,0.5-2.31c0.16-0.66,0.32-1.32,0.49-1.97c0.16-0.65,0.34-1.29,0.52-1.92
			c0.14-0.5,0.28-1,0.43-1.49c0.1-0.35,0.21-0.69,0.32-1.02c0.16-0.53,0.33-1.05,0.51-1.56c0.4-1.18,0.82-2.34,1.26-3.47
			c0.2-0.51,0.4-1.02,0.61-1.52c0.13-0.33,0.27-0.66,0.41-0.99h402.78c0.26,0.56,0.51,1.12,0.75,1.69c0.16,0.37,0.32,0.74,0.47,1.12
			c0.14,0.34,0.27,0.69,0.41,1.03c0.09,0.23,0.17,0.47,0.26,0.7c0.14,0.38,0.27,0.76,0.4,1.13c0.16,0.47,0.32,0.94,0.47,1.42
			c0.01,0.05,0.03,0.1,0.04,0.15c0.12,0.39,0.24,0.79,0.35,1.19c0.16,0.56,0.31,1.14,0.45,1.71c0.12,0.48,0.23,0.96,0.33,1.44
			C457.818,339,443.098,398.65,397.998,429.02z"/>
	</g>
	<g>
		<g>
			<path style="fill:#DCE7F4;" d="M83.669,121.105c0.008-0.01,0.015-0.021,0.023-0.031c1.325-1.795,1.237-4.265-0.244-5.933
				l-6.56-7.388c-1.738-1.958-1.56-4.954,0.397-6.692l6.125-5.438c1.958-1.738,4.954-1.56,6.692,0.397l6.528,7.352
				c1.485,1.672,3.937,2.079,5.881,0.974c0.025-0.014,0.05-0.028,0.074-0.042c1.949-1.104,2.86-3.42,2.182-5.555l-2.973-9.371
				c-0.792-2.496,0.59-5.16,3.085-5.952l7.807-2.477c2.496-0.792,5.16,0.59,5.952,3.085l2.977,9.385
				c0.677,2.135,2.756,3.503,4.984,3.282c0.026-0.003,0.053-0.005,0.079-0.008c2.226-0.218,3.996-1.964,4.245-4.187l1.097-9.785
				c0.292-2.602,2.637-4.474,5.239-4.183l8.14,0.913c2.602,0.292,4.474,2.637,4.183,5.239l-1.095,9.767
				c-0.249,2.224,1.091,4.319,3.216,5.024c0.027,0.009,0.055,0.018,0.082,0.027c2.123,0.708,4.452-0.167,5.584-2.097l4.973-8.477
				c1.325-2.258,4.229-3.015,6.488-1.69l7.065,4.145c2.258,1.325,3.015,4.229,1.69,6.488l-4.981,8.49
				c-1.133,1.932-0.759,4.394,0.897,5.901c0.02,0.018,0.04,0.036,0.06,0.054c1.653,1.507,4.132,1.655,5.951,0.352l8.003-5.73
				c2.129-1.524,5.09-1.034,6.614,1.095l4.768,6.66c1.524,2.129,1.034,5.09-1.095,6.614l-7.998,5.727
				c-1.819,1.302-2.479,3.698-1.584,5.748c0.011,0.025,0.022,0.051,0.033,0.076c0.894,2.054,3.103,3.201,5.296,2.75l9.636-1.978
				c2.565-0.527,5.07,1.126,5.597,3.69l1.647,8.023c0.526,2.565-1.126,5.07-3.69,5.597l-9.64,1.979
				c-2.194,0.45-3.772,2.374-3.785,4.614c0,0.027,0,0.054-0.001,0.081c-0.016,2.237,1.535,4.179,3.72,4.66l9.612,2.113
				c2.557,0.562,4.174,3.091,3.612,5.648l-1.759,8c-0.562,2.557-3.091,4.174-5.648,3.612l-9.605-2.111
				c-2.184-0.48-4.406,0.632-5.331,2.668c-0.012,0.026-0.023,0.051-0.035,0.077c-0.929,2.038-0.303,4.448,1.5,5.777l7.916,5.836
				c2.107,1.554,2.556,4.521,1.003,6.629l-4.86,6.593c-1.554,2.107-4.521,2.556-6.629,1.003l-7.916-5.836
				c-1.803-1.329-4.29-1.214-5.962,0.276c-0.021,0.019-0.042,0.037-0.063,0.056c-1.672,1.486-2.077,3.937-0.972,5.881l4.858,8.551
				c1.293,2.276,0.496,5.17-1.78,6.463l-7.122,4.046c-2.276,1.293-5.17,0.496-6.463-1.78l-4.861-8.557
				c-1.105-1.945-3.419-2.852-5.552-2.176c-0.026,0.008-0.052,0.016-0.078,0.025c-2.135,0.675-3.507,2.751-3.288,4.98l0.961,9.794
				c0.256,2.606-1.65,4.925-4.255,5.181l-8.151,0.799c-2.606,0.256-4.925-1.65-5.181-4.255l-0.96-9.79
				c-0.219-2.229-1.967-4-4.194-4.246c-0.028-0.003-0.055-0.006-0.083-0.009c-2.223-0.249-4.317,1.09-5.023,3.213l-3.105,9.334
				c-0.826,2.484-3.51,3.828-5.994,3.002l-7.772-2.585c-2.484-0.826-3.828-3.51-3.002-5.994l3.107-9.34
				c0.706-2.122-0.168-4.448-2.097-5.581c-0.023-0.014-0.046-0.027-0.069-0.041c-1.93-1.137-4.392-0.766-5.902,0.888l-6.637,7.269
				c-1.765,1.933-4.764,2.07-6.697,0.304l-6.048-5.523c-1.933-1.765-2.07-4.764-0.304-6.697l6.627-7.258
				c1.509-1.653,1.656-4.136,0.352-5.955c-0.017-0.024-0.034-0.047-0.051-0.071c-1.302-1.821-3.699-2.482-5.75-1.586l-9.006,3.935
				c-2.399,1.048-5.194-0.047-6.242-2.446l-3.279-7.505c-1.048-2.399,0.047-5.194,2.446-6.242l9.023-3.942
				c2.05-0.896,3.194-3.102,2.744-5.294c-0.005-0.026-0.011-0.052-0.016-0.078c-0.448-2.194-2.369-3.775-4.609-3.791l-9.846-0.069
				c-2.618-0.018-4.726-2.155-4.707-4.773l0.057-8.19c0.018-2.618,2.155-4.726,4.773-4.707l9.831,0.068
				c2.24,0.016,4.184-1.539,4.661-3.728c0.006-0.028,0.012-0.056,0.018-0.083c0.48-2.184-0.634-4.406-2.67-5.33l-8.953-4.061
				c-2.384-1.081-3.44-3.891-2.359-6.275l3.383-7.459c1.082-2.384,3.891-3.44,6.275-2.359l8.997,4.081
				c2.032,0.922,4.417,0.275,5.74-1.522C83.654,121.126,83.661,121.115,83.669,121.105z"/>
			<g>
				
					<ellipse transform="matrix(0.4058 -0.9139 0.9139 0.4058 -64.8644 214.5311)" style="fill:#EEF5FF;" cx="132.567" cy="157.154" rx="43.832" ry="43.832"/>
				
					<ellipse transform="matrix(0.4033 -0.9151 0.9151 0.4033 -64.7011 215.0904)" style="fill:none;" cx="132.567" cy="157.154" rx="34.816" ry="34.816"/>
			</g>
		</g>
		<g>
			<path style="fill:#DCE7F4;" d="M58.691,261.817c0.004-0.006,0.008-0.011,0.013-0.017c0.73-0.989,0.682-2.35-0.134-3.27
				l-3.615-4.072c-0.958-1.079-0.86-2.73,0.219-3.688l3.376-2.997c1.079-0.958,2.73-0.86,3.688,0.219l3.598,4.052
				c0.818,0.922,2.17,1.146,3.241,0.537c0.014-0.008,0.027-0.016,0.041-0.023c1.074-0.608,1.576-1.885,1.203-3.062l-1.639-5.165
				c-0.436-1.375,0.325-2.844,1.7-3.28l4.303-1.365c1.375-0.436,2.844,0.325,3.28,1.7l1.641,5.173
				c0.373,1.177,1.519,1.931,2.747,1.809c0.014-0.001,0.029-0.003,0.043-0.004c1.227-0.12,2.202-1.082,2.34-2.308l0.605-5.393
				c0.161-1.434,1.454-2.466,2.888-2.305l4.486,0.503c1.434,0.161,2.466,1.454,2.305,2.888l-0.604,5.383
				c-0.138,1.226,0.601,2.38,1.772,2.769c0.015,0.005,0.03,0.01,0.045,0.015c1.17,0.39,2.453-0.092,3.078-1.156l2.741-4.672
				c0.73-1.245,2.331-1.662,3.576-0.931l3.894,2.284c1.245,0.73,1.662,2.331,0.931,3.576l-2.745,4.679
				c-0.625,1.065-0.419,2.421,0.495,3.252c0.011,0.01,0.022,0.02,0.033,0.03c0.911,0.831,2.278,0.912,3.28,0.194l4.411-3.158
				c1.173-0.84,2.805-0.57,3.645,0.603l2.628,3.67c0.84,1.173,0.57,2.805-0.603,3.645l-4.408,3.156
				c-1.002,0.718-1.366,2.038-0.873,3.168c0.006,0.014,0.012,0.028,0.018,0.042c0.493,1.132,1.71,1.764,2.919,1.516l5.311-1.09
				c1.413-0.29,2.795,0.62,3.085,2.034l0.908,4.422c0.29,1.413-0.62,2.795-2.034,3.085l-5.313,1.091
				c-1.209,0.248-2.079,1.309-2.086,2.543c0,0.015,0,0.03,0,0.045c-0.009,1.233,0.846,2.303,2.05,2.568l5.297,1.165
				c1.409,0.31,2.301,1.703,1.991,3.113l-0.969,4.409c-0.31,1.409-1.703,2.301-3.113,1.991l-5.294-1.164
				c-1.204-0.265-2.428,0.348-2.938,1.471c-0.006,0.014-0.013,0.028-0.019,0.042c-0.512,1.123-0.167,2.451,0.827,3.184l4.363,3.216
				c1.161,0.856,1.409,2.492,0.553,3.653l-2.679,3.634c-0.856,1.161-2.492,1.409-3.653,0.553l-4.363-3.216
				c-0.994-0.733-2.364-0.669-3.286,0.152c-0.012,0.01-0.023,0.021-0.035,0.031c-0.921,0.819-1.145,2.17-0.536,3.242l2.677,4.713
				c0.713,1.255,0.273,2.85-0.981,3.562l-3.925,2.23c-1.255,0.713-2.849,0.273-3.562-0.981l-2.679-4.716
				c-0.609-1.072-1.885-1.572-3.06-1.199c-0.014,0.005-0.029,0.009-0.043,0.014c-1.177,0.372-1.933,1.516-1.812,2.745l0.529,5.398
				c0.141,1.436-0.909,2.714-2.345,2.855l-4.493,0.441c-1.436,0.141-2.714-0.909-2.855-2.345l-0.529-5.396
				c-0.12-1.229-1.084-2.204-2.311-2.34c-0.015-0.002-0.03-0.003-0.046-0.005c-1.225-0.137-2.379,0.601-2.768,1.771l-1.711,5.144
				c-0.455,1.369-1.935,2.11-3.304,1.655l-4.283-1.425c-1.369-0.455-2.11-1.935-1.655-3.304l1.712-5.148
				c0.389-1.17-0.093-2.451-1.156-3.076c-0.013-0.008-0.026-0.015-0.038-0.023c-1.064-0.627-2.421-0.422-3.253,0.489l-3.658,4.006
				c-0.973,1.066-2.626,1.141-3.691,0.168l-3.334-3.044c-1.066-0.973-1.141-2.626-0.168-3.691l3.652-4
				c0.832-0.911,0.913-2.279,0.194-3.282c-0.009-0.013-0.019-0.026-0.028-0.039c-0.718-1.003-2.039-1.368-3.169-0.874l-4.964,2.169
				c-1.322,0.578-2.862-0.026-3.44-1.348l-1.807-4.137c-0.578-1.322,0.026-2.862,1.348-3.44l4.973-2.173
				c1.13-0.494,1.76-1.71,1.512-2.918c-0.003-0.014-0.006-0.029-0.009-0.043c-0.247-1.209-1.306-2.081-2.54-2.089l-5.427-0.038
				c-1.443-0.01-2.604-1.188-2.594-2.631l0.031-4.514c0.01-1.443,1.188-2.604,2.631-2.594l5.418,0.038
				c1.235,0.009,2.306-0.848,2.569-2.054c0.003-0.015,0.007-0.031,0.01-0.046c0.265-1.204-0.349-2.428-1.472-2.938l-4.935-2.238
				c-1.314-0.596-1.896-2.145-1.3-3.459l1.865-4.111c0.596-1.314,2.145-1.896,3.459-1.3l4.959,2.249
				c1.12,0.508,2.434,0.151,3.163-0.839C58.683,261.828,58.687,261.823,58.691,261.817z"/>
			<g>
				<circle style="fill:#EEF5FF;" cx="85.641" cy="281.685" r="24.158"/>
				<circle style="fill:none;" cx="85.641" cy="281.685" r="19.189"/>
			</g>
		</g>
	</g>
	<g>
		<g>
			<path style="fill:#307175;" d="M382.526,257.253c0,0-6.54-4.711-1.368-10.968c5.172-6.257,10.435-7.556,10.818-14.075
				c0.383-6.519-7.75-15.08,2.461-21.011c10.211-5.932,24.222,7.996,21.08,26.946C412.375,257.094,396.472,265.301,382.526,257.253z
				"/>
		</g>
		<g>
			<path style="fill:#307175;" d="M397.269,273.026c0,0,7.097,16.551,24.584,12.577c17.487-3.974,21.02-13.003,38.245-17.602
				c17.225-4.599,14.694-20.604,8.101-26.597c-6.925-6.295-16.48-6.669-28.788,3.361c-12.307,10.03-22.95,9.023-31.005,11.603
				C400.352,258.949,397.739,268.021,397.269,273.026z"/>
		</g>
		<g>
			<path style="fill:#307175;" d="M391.737,289.209c3.572-3.314,18.928-5.996,28.993,1.509
				c10.064,7.506,17.013,21.214,24.017,24.843c7.004,3.629,22.551,27.579,7.596,37.629c-14.956,10.05-26.904,0.896-33.151-10.108
				s-7.899-17.941-18.812-24.574C389.465,311.874,381.164,299.019,391.737,289.209z"/>
		</g>
		<g>
			<path style="fill:#245558;" d="M359.332,262.59c0.047-0.186,0.205-0.33,0.407-0.351c18.522-1.885,30.992-7.581,37.062-16.932
				c6.517-10.04,3.082-20.842,3.046-20.95c-0.081-0.248,0.053-0.511,0.299-0.591c0.245-0.081,0.51,0.053,0.591,0.299
				c0.036,0.112,3.61,11.34-3.15,21.753c-6.233,9.601-18.935,15.439-37.753,17.354c-0.257,0.026-0.487-0.162-0.513-0.419
				C359.315,262.697,359.319,262.642,359.332,262.59z"/>
		</g>
		<g>
			<path style="fill:#245558;" d="M352.311,265.838c0.005-0.019,0.011-0.039,0.018-0.058c0.095-0.24,0.367-0.357,0.606-0.262
				c51.761,20.472,100.441-9.523,100.927-9.828c0.218-0.138,0.507-0.072,0.644,0.147c0.138,0.219,0.072,0.507-0.147,0.644
				c-0.489,0.308-49.558,30.556-101.768,9.907C352.372,266.3,352.255,266.062,352.311,265.838z"/>
		</g>
		<g>
			<path style="fill:#245558;" d="M361.488,276.717c0.045-0.178,0.223-0.292,0.405-0.255c0.48,0.099,48.313,10.373,76.31,58.888
				c0.096,0.165,0.039,0.376-0.127,0.473c-0.166,0.095-0.377,0.039-0.473-0.128c-27.843-48.248-75.372-58.457-75.849-58.554
				c-0.187-0.039-0.308-0.222-0.27-0.409C361.486,276.727,361.487,276.722,361.488,276.717z"/>
		</g>
	</g>
	<g>
		<g>
			<path style="fill:#307175;" d="M129.424,392.693c0,0,5.95,0.339,5.211,6.295c-0.739,5.956-3.504,8.857-1.153,13.074
				c2.351,4.217,10.824,6.323,6.814,14.079c-4.01,7.756-18.28,4.638-23.85-8.426C110.875,404.651,117.53,393.216,129.424,392.693z"
				/>
		</g>
		<g>
			<path style="fill:#307175;" d="M109.164,388.606c0,0-11.026-7.517-20.371,1.93c-9.345,9.447-7.958,16.495-16.891,26.228
				c-8.933,9.733-0.978,18.727,5.528,19.847c6.834,1.176,12.954-2.395,16.651-13.563s10.749-14.778,14.755-19.597
				C112.843,398.631,110.863,391.921,109.164,388.606z"/>
		</g>
		<g>
			<path style="fill:#307175;" d="M106.187,373.234c-1.231,4.714-12.74,15.229-25.262,14.307
				c-12.521-0.922-25.747-8.748-33.605-8.044c-7.857,0.704-33.839-11.14-26.627-27.652c7.212-16.512,22.208-15.213,33.389-9.29
				c11.182,5.922,16.302,10.886,29.071,10.615C95.922,352.899,109.831,359.279,106.187,373.234z"/>
		</g>
		<g>
			<path style="fill:#245558;" d="M141.765,380.15c0.045,0.134,0.003,0.288-0.114,0.381c-10.8,8.534-16.312,17.041-16.382,25.283
				c-0.074,8.85,6.359,14.22,6.425,14.273c0.149,0.122,0.17,0.34,0.049,0.487c-0.121,0.148-0.339,0.17-0.487,0.049
				c-0.067-0.056-6.757-5.636-6.678-14.815c0.072-8.463,5.672-17.15,16.645-25.821c0.15-0.118,0.368-0.093,0.486,0.057
				C141.734,380.077,141.752,380.112,141.765,380.15z"/>
		</g>
		<g>
			<path style="fill:#245558;" d="M140.121,375.196c0.005,0.014,0.009,0.029,0.012,0.044c0.036,0.188-0.087,0.369-0.274,0.405
				c-40.498,7.818-58.975,45.947-59.157,46.33c-0.082,0.173-0.288,0.247-0.461,0.165c-0.173-0.082-0.247-0.289-0.165-0.461
				c0.183-0.387,18.802-38.829,59.651-46.715C139.899,374.931,140.067,375.033,140.121,375.196z"/>
		</g>
		<g>
			<path style="fill:#245558;" d="M138.409,367.514c0.058,0.175-0.031,0.366-0.205,0.433c-0.458,0.175-46.319,17.215-96-8.655
				c-0.169-0.087-0.235-0.296-0.147-0.467c0.089-0.169,0.298-0.236,0.467-0.146c49.409,25.727,94.978,8.796,95.432,8.621
				c0.179-0.068,0.379,0.021,0.447,0.2C138.406,367.505,138.408,367.509,138.409,367.514z"/>
		</g>
	</g>
	<g>
		<g>
			<circle style="fill:#93BBE5;" cx="225.763" cy="125.665" r="4.28"/>
			<circle style="fill:#93BBE5;" cx="403.08" cy="154.001" r="4.28"/>
			<path style="fill:#93BBE5;" d="M403.786,152.268h-1.155v-2.357h1.155V152.268z M403.786,146.398h-1.155v-3.513h1.155V146.398z
				 M403.786,139.372h-1.155v-3.513h1.155V139.372z M403.786,132.346h-1.155v-3.513h1.155V132.346z M403.786,125.32h-1.155v-3.513
				h1.155V125.32z M226.523,124.473h-1.154v-3.513h1.154V124.473z M403.786,118.294h-1.155v-3.513h1.155V118.294z M226.523,117.447
				h-1.154v-3.513h1.154V117.447z M403.786,111.268h-1.155v-3.513h1.155V111.268z M226.523,110.421h-1.154v-3.513h1.154V110.421z
				 M403.786,104.242h-1.155v-3.513h1.155V104.242z M226.523,103.395h-1.154v-3.513h1.154V103.395z M403.786,97.217h-1.155v-3.513
				h1.155V97.217z M226.523,96.369h-1.154v-3.513h1.154V96.369z M403.786,90.191h-1.155v-3.513h1.155V90.191z M226.523,89.343
				h-1.154V85.83h1.154V89.343z M403.786,83.165h-1.155v-3.513h1.155V83.165z M226.523,82.317h-1.154v-3.513h1.154V82.317z
				 M403.209,76.332h-3.129v-1.154h3.706v0.961h-0.577V76.332z M396.566,76.332h-3.513v-1.154h3.513V76.332z M390.411,76.332h-3.513
				v-1.154h3.513V76.332z M383.385,76.332h-3.513v-1.154h3.513V76.332z M376.359,76.332h-3.513v-1.154h3.513V76.332z
				 M369.333,76.332h-3.513v-1.154h3.513V76.332z M362.307,76.332h-3.513v-1.154h3.513V76.332z M355.281,76.332h-3.513v-1.154h3.513
				V76.332z M349.363,76.332h-3.513v-1.154h3.513V76.332z M342.337,76.332h-3.513v-1.154h3.513V76.332z M335.311,76.332h-3.513
				v-1.154h3.513V76.332z M328.285,76.332h-3.513v-1.154h3.513V76.332z M321.26,76.332h-3.513v-1.154h3.513V76.332z M314.234,76.332
				h-3.513v-1.154h3.513V76.332z M307.208,76.332h-3.513v-1.154h3.513V76.332z M300.182,76.332h-3.513v-1.154h3.513V76.332z
				 M293.156,76.332h-3.513v-1.154h3.513V76.332z M286.13,76.332h-3.513v-1.154h3.513V76.332z M279.104,76.332h-3.513v-1.154h3.513
				V76.332z M272.078,76.332h-3.513v-1.154h3.513V76.332z M265.052,76.332h-3.513v-1.154h3.513V76.332z M258.026,76.332h-3.513
				v-1.154h3.513V76.332z M251,76.332h-3.513v-1.154H251V76.332z M243.974,76.332h-3.513v-1.154h3.513V76.332z M236.948,76.332
				h-3.513v-1.154h3.513V76.332z M229.922,76.332h-3.513v-1.154h3.513V76.332z"/>
		</g>
		<g>
			<g>
				<g>
					<g>
						<path style="fill:#E4ECF9;" d="M250.468,92.981l-26.551,15.881c-1.003,0.6-2.303,0.273-2.903-0.73l-15.881-26.551
							c-0.6-1.003-0.273-2.303,0.73-2.903l26.551-15.881c1.003-0.6,2.303-0.273,2.903,0.73l15.881,26.551
							C251.798,91.082,251.471,92.381,250.468,92.981z"/>
					</g>
				</g>
				<circle style="fill:#F9FBFC;" cx="215.403" cy="82.194" r="3.81"/>
				<path style="fill:#F9FBFC;" d="M241.657,76.982l8.594,14.367l-0.117,0.125l-27.527,16.465l-3.406-5.695l0,0
					c1.015-4.074,5.147-6.546,9.217-5.515l1.736,0.44l3.938-15.661C234.93,78.168,238.318,76.142,241.657,76.982L241.657,76.982z"/>
			</g>
			<g>
				<g>
					<path style="fill:#E4ECF9;" d="M351.072,169.491l6.68-40.364c0.111-0.67,0.738-1.127,1.41-1.027l23.309,3.471l5.634,10.314
						l-5.093,31.895c-0.208,1.305-1.437,2.192-2.741,1.981l-27.956-4.537C351.494,171.089,350.936,170.313,351.072,169.491z"/>
					<path style="fill:#E4ECF9;" d="M381.128,176.052c-0.295,0.053-0.6,0.055-0.904,0.006l-27.956-4.537
						c-0.478-0.077-0.896-0.336-1.178-0.729c-0.283-0.393-0.395-0.872-0.316-1.349l0,0l6.68-40.365
						c0.137-0.827,0.922-1.399,1.752-1.276l23.458,3.493l5.755,10.536l-5.109,31.997c-0.114,0.711-0.498,1.334-1.081,1.756
						C381.897,175.823,381.521,175.982,381.128,176.052z M351.37,169.54c-0.053,0.318,0.022,0.637,0.21,0.898
						c0.188,0.261,0.467,0.434,0.785,0.485l27.956,4.537c0.551,0.089,1.103-0.042,1.556-0.368c0.453-0.327,0.751-0.811,0.839-1.362
						l5.077-31.793l-5.512-10.092l-23.161-3.448c-0.505-0.076-0.984,0.274-1.068,0.777L351.37,169.54z"/>
				</g>
				<g>
					<polygon style="fill:#D9E1E8;" points="382.472,131.57 380.876,141.022 388.105,141.884 					"/>
				</g>
				<g>
					<path style="fill:#93BBE5;" d="M376.832,139.337c-0.051,0.009-0.105,0.01-0.159,0l-14.217-2.537
						c-0.246-0.044-0.409-0.278-0.365-0.524c0.044-0.246,0.279-0.41,0.525-0.365l14.217,2.537c0.246,0.044,0.409,0.278,0.365,0.524
						C377.164,139.163,377.013,139.305,376.832,139.337z"/>
				</g>
				<g>
					<path style="fill:#93BBE5;" d="M382.532,147.249c-0.051,0.009-0.105,0.01-0.159,0l-20.738-3.701
						c-0.246-0.044-0.409-0.278-0.365-0.524c0.044-0.246,0.279-0.41,0.525-0.365l20.738,3.701c0.246,0.044,0.409,0.278,0.365,0.524
						C382.864,147.075,382.713,147.217,382.532,147.249z"/>
				</g>
				<g>
					<path style="fill:#93BBE5;" d="M380.881,155.808c-0.051,0.009-0.105,0.01-0.159,0l-20.738-3.701
						c-0.246-0.044-0.409-0.278-0.365-0.524c0.044-0.246,0.279-0.41,0.525-0.365l20.738,3.701c0.246,0.044,0.409,0.278,0.365,0.524
						C381.212,155.633,381.062,155.775,380.881,155.808z"/>
				</g>
				<g>
					<path style="fill:#93BBE5;" d="M379.531,163.437c-0.051,0.009-0.105,0.01-0.159,0l-20.738-3.701
						c-0.246-0.044-0.409-0.278-0.365-0.524c0.044-0.246,0.279-0.41,0.525-0.365l20.738,3.701c0.246,0.044,0.409,0.278,0.365,0.524
						C379.863,163.263,379.712,163.405,379.531,163.437z"/>
				</g>
				<g>
					<path style="fill:#93BBE5;" d="M378.537,169.872c-0.051,0.009-0.105,0.01-0.159,0l-20.738-3.701
						c-0.246-0.044-0.409-0.278-0.365-0.524c0.045-0.246,0.279-0.411,0.525-0.365l20.738,3.701c0.246,0.044,0.409,0.278,0.365,0.524
						C378.868,169.698,378.718,169.84,378.537,169.872z"/>
				</g>
			</g>
			<g>
				<g>
					<path style="fill:#F89D13;" d="M419.616,121.26h-27.849c-1.361,0-2.464-1.103-2.464-2.464V95.02
						c0-1.361,1.103-2.464,2.464-2.464h27.849c1.361,0,2.464,1.103,2.464,2.464v23.775
						C422.08,120.157,420.977,121.26,419.616,121.26z"/>
				</g>
				<g>
					<g>
						<path style="fill:none;" d="M396.369,116.405h-3.376c-0.695,0-1.258-0.563-1.258-1.258v-7.683
							c0-0.695,0.563-1.258,1.258-1.258h3.376c0.695,0,1.258,0.563,1.258,1.258v7.683
							C397.627,115.842,397.064,116.405,396.369,116.405z"/>
					</g>
					<g>
						<path style="fill:none;" d="M403.709,116.405h-3.376c-0.695,0-1.258-0.563-1.258-1.258v-3.376
							c0-0.695,0.563-1.258,1.258-1.258h3.376c0.695,0,1.258,0.563,1.258,1.258v3.376
							C404.967,115.842,404.404,116.405,403.709,116.405z"/>
					</g>
					<g>
						<path style="fill:none;" d="M411.05,116.405h-3.376c-0.695,0-1.258-0.563-1.258-1.258v-10.029
							c0-0.695,0.563-1.258,1.258-1.258h3.376c0.695,0,1.258,0.563,1.258,1.258v10.029
							C412.308,115.842,411.744,116.405,411.05,116.405z"/>
					</g>
					<g>
						<path style="fill:none;" d="M418.39,116.405h-3.376c-0.695,0-1.258-0.563-1.258-1.258v-13.46
							c0-0.695,0.563-1.258,1.258-1.258h3.376c0.695,0,1.258,0.563,1.258,1.258v13.46
							C419.648,115.842,419.085,116.405,418.39,116.405z"/>
					</g>
				</g>
			</g>
			<g>
				<g>
					<path style="fill:#297EEC;" d="M344.725,105.922h-64.37c-3.146,0-5.696-2.55-5.696-5.696V45.273
						c0-3.146,2.55-5.696,5.696-5.696h64.37c3.146,0,5.696,2.55,5.696,5.696v54.953C350.421,103.372,347.87,105.922,344.725,105.922
						z"/>
				</g>
				<g>
					<g>
						<path style="fill:none;" d="M312.532,99.417c-14.696,0-26.652-11.963-26.652-26.668c0-7.282,3.031-14.328,8.315-19.33
							c4.962-4.73,11.476-7.337,18.337-7.337c6.871,0,13.39,2.607,18.356,7.34c5.281,5,8.312,12.046,8.312,19.328
							C339.2,87.454,327.236,99.417,312.532,99.417z M312.532,48.377c-6.269,0-12.22,2.382-16.756,6.706
							c-4.831,4.574-7.601,11.012-7.601,17.666c0,13.439,10.926,24.373,24.357,24.373c13.439,0,24.373-10.934,24.373-24.373
							c0-6.654-2.769-13.093-7.598-17.664C324.768,50.758,318.811,48.377,312.532,48.377z"/>
					</g>
				</g>
				<g>
					<g>
						<g>
							<path style="fill:none;" d="M312.532,62.407c-6.854,0-13.367-2.601-18.339-7.323c-0.228-0.216-0.357-0.517-0.357-0.831
								c0-0.314,0.128-0.615,0.356-0.832c4.965-4.733,11.479-7.34,18.34-7.34c6.871,0,13.39,2.607,18.356,7.34
								c0.227,0.217,0.356,0.518,0.356,0.832c0,0.314-0.129,0.614-0.357,0.831C325.915,59.807,319.397,62.407,312.532,62.407z
								 M296.694,54.251c4.412,3.789,9.989,5.861,15.838,5.861c5.859,0,11.441-2.072,15.854-5.861
								c-4.407-3.797-9.99-5.874-15.854-5.874C306.677,48.377,301.1,50.454,296.694,54.251z"/>
						</g>
					</g>
					<g>
						<g>
							<path style="fill:none;" d="M294.983,92.394c-0.303,0-0.605-0.119-0.831-0.356c-0.437-0.459-0.42-1.185,0.039-1.623
								c4.955-4.723,11.469-7.324,18.341-7.324c6.883,0,13.401,2.601,18.356,7.324c0.459,0.437,0.476,1.164,0.039,1.623
								c-0.437,0.459-1.162,0.476-1.623,0.039c-4.526-4.315-10.482-6.691-16.772-6.691c-6.28,0-12.231,2.376-16.757,6.691
								C295.552,92.289,295.267,92.394,294.983,92.394z"/>
						</g>
					</g>
				</g>
				<g>
					<g>
						<path style="fill:none;" d="M312.539,99.409c-8.484,0-15.129-11.712-15.129-26.664s6.645-26.664,15.129-26.664
							c8.484,0,15.129,11.712,15.129,26.664S321.023,99.409,312.539,99.409z M312.539,48.377c-6.957,0-12.834,11.16-12.834,24.369
							c0,13.209,5.877,24.369,12.834,24.369s12.834-11.16,12.834-24.369C325.373,59.536,319.496,48.377,312.539,48.377z"/>
					</g>
				</g>
				<g>
					<g>
						<path style="fill:none;" d="M312.539,99.409c-0.634,0-1.147-0.514-1.147-1.147V47.229c0-0.634,0.514-1.147,1.147-1.147
							s1.147,0.514,1.147,1.147v51.032C313.687,98.895,313.173,99.409,312.539,99.409z"/>
					</g>
				</g>
				<g>
					<g>
						<path style="fill:none;" d="M301.254,73.918c-7.916,0-14.018-0.006-14.301-0.024c-0.632-0.041-1.112-0.586-1.071-1.219
							c0.04-0.628,0.583-1.112,1.208-1.072c1.039,0.037,33.775,0.015,50.96-0.002c0.001,0,0.001,0,0.001,0
							c0.634,0,1.147,0.513,1.147,1.146c0.001,0.634-0.512,1.148-1.146,1.149C334.77,73.9,315.199,73.918,301.254,73.918z"/>
					</g>
				</g>
			</g>
		</g>
	</g>
	<g>
		<ellipse style="fill:#BACCDD;" cx="237.133" cy="405.658" rx="84.812" ry="3.481"/>
		<g>
			<g>
				<g>
					<g>
						<g>
							<rect x="210.806" y="387.667" style="fill:#78A6D1;" width="52.656" height="14.788"/>
						</g>
						<g>
							<path style="fill:#93BBE5;" d="M365.01,225.241v157.004c0,3.596-2.922,6.518-6.518,6.518H115.773
								c-3.596,0-6.51-2.922-6.51-6.518V225.241c0-3.604,2.906-6.518,6.503-6.518H358.5
								C362.104,218.723,365.01,221.637,365.01,225.241z"/>
						</g>
						<g>
							<path style="fill:#93BBE5;" d="M365.01,225.241v148.812H109.255V225.241c0-3.604,2.914-6.518,6.503-6.518H358.5
								C362.104,218.723,365.01,221.637,365.01,225.241z"/>
						</g>
						<g>
							<rect x="115.546" y="225.242" style="fill:#EEF5FF;" width="243.177" height="141.932"/>
						</g>
						<g>
							<path style="fill:#78A6D1;" d="M280.071,405.658h-85.874v-1.47c0-1.743,1.413-3.156,3.156-3.156h79.562
								c1.743,0,3.156,1.413,3.156,3.156V405.658z"/>
						</g>
					</g>
				</g>
			</g>
		</g>
	</g>
	<g>
		<g>
			<path style="fill:#FE7D6B;" d="M249.242,177.442c0.496,0.219,0.973,0.397,1.443,0.54c2.231,0.682,4.251,0.562,6.905,0.138
				c1.222-0.197,1.551-1.183,1.052-1.683c0.872-0.119,1.744-0.306,2.615-0.575c1.257-0.381,1.236-1.588,0.456-1.989
				c0.423-0.097,0.847-0.212,1.278-0.346c1.7-0.536,1.18-2.366-0.537-1.825c-2.297,0.725-4.503,0.564-6.732,0.153
				c1.76,0.081,3.539-0.016,5.321-0.286c1.653-0.253,1.347-2.297-0.299-2.046c-3.108,0.47-6.323,0.054-9.382-0.838
				c0.946-0.338,1.918-0.575,2.938-0.621c1.659-0.074,1.374-2.108-0.301-2.036c-3.461,0.157-5.825,0.72-9,2.144
				c-0.024,0.01-0.042,0.026-0.067,0.04l-1.852,0.129c1.001,3.362,1.809,6.767,2.482,10.201
				C247.858,177.87,249.242,177.442,249.242,177.442z"/>
			<g id="XMLID_00000036935965859330923990000014713417323179782818_">
				<path style="fill:#995033;" d="M256.036,172.001l0.029-0.177c-0.041-0.007-4.139-0.694-4.844-1.468l-0.133,0.121
					c0.258,0.283,0.906,0.548,1.651,0.776C254.156,171.686,255.924,171.982,256.036,172.001z"/>
			</g>
			<g id="XMLID_00000026871035481644240220000006638275361159364483_">
				<path style="fill:#995033;" d="M261.721,173.964l-0.019-0.179c-0.065,0.007-6.569,0.674-10.477-1.208l-0.078,0.162
					c0.456,0.22,0.945,0.405,1.456,0.561C256.525,174.498,261.663,173.97,261.721,173.964z"/>
			</g>
			<g id="XMLID_00000065760671713267038860000005677880589570249352_">
				<path style="fill:#995033;" d="M258.645,176.528l-0.002-0.179c-0.066,0.001-6.594,0.05-7.509-1.461l-0.154,0.093
					c0.235,0.389,0.794,0.681,1.509,0.899C254.711,176.559,258.438,176.531,258.645,176.528z"/>
			</g>
			<path style="fill:#FE7D6B;" d="M121.963,289.107c0,0,2-1.935,3.283-2.469l12.619-5.242c0,0,4.426-5.558,5.731-7.248
				c0.609-0.789,1.682-1.018,2.529-0.547l4.322,2.407c0.951,0.529,1.278,1.75,0.73,2.723l-7.182,13.52
				c-2.3,2.051-4.55,3.697-7.055,5.483L121.963,289.107L121.963,289.107z"/>
			<path style="fill:#191919;" d="M124.864,285.652l8.537-3.546l0.63-0.559c0.791-0.702,1.933-0.864,2.878-0.39
				c1.859,0.932,3.607,2.346,4.725,3.345c0.769,0.687,1.058,1.762,0.741,2.743l-0.536,1.659c0.223,0.082,0.452,0.151,0.682,0.202
				c3.633,0.772,3.166-0.65,3.439-0.495c0.174,0.101-1.11,5.529-2.04,9.355c-0.451,1.854-2.558,2.753-4.209,1.797l-18.827-10.909
				c0.039-0.091,0.076-0.18,0.121-0.267C121.85,286.902,123.665,286.151,124.864,285.652L124.864,285.652z"/>
			<g>
				<path style="fill:#2276D3;" d="M219.12,171.172c-9.665-2.1-22.019-63.075-31.189-29.754
					c-3.918,7.839,17.624,45.286,25.375,43.982c6.669-1.529,38.887-1.296,32.623-11.971c-0.718-1.609-0.856-4.207-2.065-5.284
					C235.747,169.816,227.433,171.417,219.12,171.172z"/>
			</g>
			<g>
				<path style="fill:#297EEC;" d="M193.976,129.913c-5.829-3.144-11.915-5.476-18.715-5.47c-9.917,0.008-19.831,2.414-28.626,7.002
					c-3.777,1.971-3.426,8.411-3.469,12.026c-0.058,4.925,0.758,9.905,2.886,14.377c2.205,4.635,5.687,8.53,8.338,12.925
					c1.709,2.833,3.886,6.444,3.829,9.839c-0.049,2.935,0.274,5.665,0.683,8.59c0.245,1.751,0.182,4.889,1.635,6.158
					c0.727,0.635,1.692,0.917,2.634,1.13c4.739,1.073,9.67,0.854,14.512,0.449c9.002-0.752,18.496-2.365,25.303-8.303
					c-2.811-9.485-3.451-19.218-4.711-29c-0.675-5.242-1.301-10.49-1.931-15.738c-0.402-3.354-0.387-6.529-0.296-9.911
					C196.104,131.979,195.735,130.862,193.976,129.913z"/>
			</g>
			<g>
				<g>
					<path style="fill:#2276D3;" d="M143.766,196.486c-6.817-3.399-12.439-8.094-15.846-14.955
						c-0.568-1.144-1.133-2.309-1.374-3.563c-0.338-1.766-0.01-3.586,0.357-5.346c1.783-8.55,4.516-16.9,8.12-24.855
						c1.748-3.858,3.224-7.922,5.796-11.335c2.044-2.712,5.731-5.505,9.33-4.486c3.8,1.076,5.781,5.509,6.856,8.972
						c1.749,5.638-0.292,10.091-2.293,15.308c-2.572,6.703-5.907,13.079-8.601,19.731c6.047,4.349,12.2,8.549,18.453,12.596
						c1.459,0.945,3.104,1.781,4.468,2.855c1.627,1.282,0.972,1.601-0.018,3.154c-0.508,0.798-4.236,9.466-4.346,9.439
						C157.499,202.266,150.369,199.779,143.766,196.486z"/>
				</g>
			</g>
			<path style="fill:#E5A589;" d="M193.19,191.003c-0.514-0.785-1.102-1.337-1.573-1.705c-2.371,0.654-4.247,0.704-5.554,0.618
				c-1.15-0.076-2.424-0.239-3.855,0.392c-0.644,0.284-1.143,0.81-1.647,1.3c-1.545,1.503-3.305,2.784-5.21,3.793
				c0.328,1.03,1.583,1.655,2.603,1.296c0.292-0.103,0.556-0.271,0.814-0.441c1.234-0.811,2.413-1.705,3.528-2.673
				c0.171-0.149,0.489-0.272,0.574-0.062c-0.888,0.947-1.849,1.826-2.87,2.628c-0.702,0.552-1.433,1.067-2.115,1.643
				c-0.85,0.718-1.619,1.526-2.349,2.365c-0.313,0.36-0.628,0.742-0.746,1.204c-0.118,0.462,0.02,1.024,0.438,1.254
				c0.538,0.295,1.19-0.078,1.67-0.46c2.036-1.622,3.774-3.702,6.155-4.753c-2.698,1.857-5.329,3.811-7.885,5.858
				c-0.139,0.111-0.283,0.23-0.352,0.394c-0.153,0.362,0.116,0.757,0.386,1.041c0.128,0.134,0.268,0.27,0.447,0.318
				c0.296,0.078,0.592-0.102,0.845-0.274c2.674-1.819,5.348-3.638,8.022-5.457c-0.513,1.191-1.561,2.073-2.681,2.727
				s-2.34,1.121-3.469,1.758c-0.252,0.142-0.518,0.316-0.602,0.593c-0.122,0.403,0.196,0.794,0.489,1.097
				c0.111,0.114,0.227,0.232,0.377,0.286c0.242,0.088,0.509-0.01,0.746-0.112c2.139-0.911,4.141-2.144,5.917-3.644
				c0.443-0.374,0.965-0.792,1.534-0.678c-1.292,1.805-3.125,3.132-4.836,4.545c-0.213,0.176-0.448,0.422-0.37,0.687
				c0.103,0.355,0.611,0.336,0.962,0.222c3.297-1.077,5.727-3.82,7.99-6.448c0.598-0.695,1.2-1.394,1.674-2.179
				c0.59-0.976,1.336-1.832,1.542-2.121c0.237-0.332,0.433-0.61,0.573-0.808C194.378,194.433,194.303,192.702,193.19,191.003z"/>
			<path style="fill:#114175;" d="M150.824,280.387c6.417-7.061,14.129-15.633,22.808-25.46
				c8.465-9.585,18.044-20.585,26.348-36.524c4.657-8.938,7.273-16.28,4.163-21.232c-1.06-1.688-3.829-4.759-7.836-5.33
				c-2.867-0.409-5.457,0.592-6.435,0.969c-0.353,0.136-2.215,0.871-4.109,2.367c-9.797,7.74-18.279,23.642-18.279,23.642
				c-11.944,22.392-6.35,11.135-11.255,20.883c-4.219,8.384-9.841,19.663-16.442,33.206
				C143.467,275.401,147.145,277.894,150.824,280.387z"/>
			<g>
				<path style="fill:#DCE2E2;" d="M205.968,203.19h-59.939c-1.328,0-2.404-1.076-2.404-2.404
					c-0.715-11.702-1.429-23.404-2.144-35.107c-0.003-0.197-0.002-1.279,0.858-2.143c0.951-0.955,2.184-0.872,2.358-0.857
					c20.939,0.071,41.879,0.143,62.818,0.214c0.318,0.061,1.046,0.244,1.715,0.857c0.801,0.735,1.013,1.624,1.072,1.929
					c-0.643,11.702-1.286,23.404-1.93,35.107C208.373,202.114,207.296,203.19,205.968,203.19z"/>
				<path style="fill:#C6D1D1;" d="M207.339,200.833h-63.098c-0.294,0-0.574-0.053-0.837-0.145c0.002,0.033,0.004,0.066,0.006,0.099
					c0,1.328,1.076,2.404,2.404,2.404h59.939c1.328,0,2.404-1.076,2.404-2.404c0.002-0.031,0.003-0.063,0.005-0.094
					C207.905,200.782,207.628,200.833,207.339,200.833z"/>
				
					<ellipse transform="matrix(1 -0.0033 0.0033 1 -0.6132 0.5881)" style="fill:#D0D3D3;" cx="176.106" cy="184.221" rx="3.109" ry="3.108"/>
			</g>
			<path style="fill:#184785;" d="M209.956,216.889c-8.888-0.318-19.627-0.756-31.833-1.367c-11.905-0.596-25.479-1.37-41.518-6.208
				c-8.994-2.713-15.596-5.749-16.874-11.046c-0.436-1.806-0.682-5.651,1.545-8.695c1.594-2.178,3.947-3.254,4.836-3.66
				c0.32-0.146,2.023-0.91,4.254-1.199c11.541-1.494,27.671,3.203,27.671,3.203c22.713,6.613,11.562,3.015,21.258,6.09
				c8.34,2.645,19.524,6.238,32.856,10.654C211.419,208.737,210.688,212.813,209.956,216.889z"/>
			<g>
				<path style="fill:#184785;" d="M165.343,117.146l-1.742-4.091l1.208,0.743c0,0,0.564,1.605,0.778,2.637
					C165.801,117.466,165.343,117.146,165.343,117.146z"/>
				<path style="fill:#FE7D6B;" d="M165.795,112.475c-0.003,0.463-0.137,18.295-0.137,18.295s1.975,2.417,4.951,2.439
					c2.976,0.022,5.696-3.525,5.696-3.525l-0.415-10.35L165.795,112.475z"/>
				<path style="fill:#856758;" d="M176.045,123.248c-6.358,2.739-9.549-4.69-9.612-4.793c2.017,1.004,9.039,3.208,9.549,3.283
					L176.045,123.248z"/>
				<path style="fill:#FE7D6B;" d="M172.654,122.776c-4.717,0.045-7.804-4.506-7.846-8.979l-0.067-7.094
					c-0.042-4.473,3.398-8.132,7.684-8.173l0,0c4.286-0.041,7.795,3.553,7.837,8.026l0.067,7.094
					C180.371,118.123,177.372,122.731,172.654,122.776z"/>
				<path style="fill:#184785;" d="M163.996,108.79c-0.851,0.051-1.437,1.011-1.437,1.011s-2.107-3.831-1.979-6.257
					c0.128-2.426,2.022-3.214,2.022-3.214s-0.047-1.668,0.634-2.881c1.245-2.217,4.048-1.439,4.048-1.439s1.186-1.972,2.618-2.235
					c3.129-0.575,4.214,0.638,4.214,0.638s1.213-1.405,3.448-0.511c2.235,0.894,1.724,3.107,1.724,3.107s3.873-1.468,4.767,1.788
					c0.578,2.104,0.17,4.767-2.533,5.129c-1.566,0.21-2.937-1.022-2.937-1.022s-0.447,1.022-2.49,1.213
					c-2.555,0.24-3.767-1.724-3.767-1.724s0,0.447-1.596,1.724c-1.596,1.277-4.384-0.383-4.384-0.383l-0.383,3.022l-1.064,3.533
					l-0.125-1.277C164.775,109.014,164.528,108.759,163.996,108.79z"/>
				<path style="fill:#FE7D6B;" d="M162.198,111.343c0.013,1.41,0.887,2.545,1.952,2.535c1.978-0.019,1.917-1.161,1.903-2.571
					c-0.013-1.41-0.887-2.545-1.952-2.535C163.037,108.782,162.185,109.933,162.198,111.343z"/>
				<path style="fill:#DEAC93;" d="M162.971,110.575c0.079-0.34,0.268-0.74,0.616-0.875c0.301-0.117,0.716,0.071,0.731,0.417
					c0.003,0.067-0.109,0.087-0.12,0.017c-0.026-0.167-0.176-0.269-0.341-0.267c-0.174,0.002-0.327,0.128-0.424,0.263
					c-0.207,0.29-0.275,0.679-0.249,1.029c0.026,0.355,0.162,0.723,0.401,0.99c0.111,0.124,0.254,0.227,0.414,0.276
					c0.137,0.042,0.328,0.049,0.458-0.013c0.053-0.026,0.133,0.03,0.092,0.09c-0.089,0.128-0.211,0.222-0.372,0.226
					c-0.169,0.005-0.344-0.06-0.487-0.145c-0.324-0.193-0.538-0.532-0.659-0.883C162.906,111.341,162.885,110.945,162.971,110.575z"
					/>
			</g>
			<path style="fill:#FE7D6B;" d="M226.112,216.193c-2.798,2.172-5.501,3.968-7.325,3.94l-13.146-6.195
				c-1.021-0.374-2.304-0.755-1.962-1.764l1.557-4.586c0.307-0.901,1.228-1.419,2.174-1.226c2.027,0.419,8.791,1.708,8.791,1.708
				c4.152-1.41,8.304-2.823,12.454-4.233c1.266-0.431,2.577-0.906,3.839-0.377C232.536,203.476,226.112,216.193,226.112,216.193
				L226.112,216.193z"/>
			<path style="fill:#191919;" d="M217.819,216.831c0.135-0.187,0.255-0.384,0.362-0.59l-1.661-1.018
				c-0.731-0.448-1.143-1.273-1.058-2.127c0.15-1.507,0.51-3.953,1.349-6.012c0.344-0.845,1.179-1.388,2.091-1.378l0.598,0.007
				l10.125-6.972c1.185-0.403,2.974-1.011,4.669-0.301c0.24,0.099,0.449,0.333,0.635,0.663l-11.556,23.052
				c-0.351,0.7-1.214,0.965-1.899,0.585c-3.382-1.877-7.899-4.905-7.66-4.979C215.2,217.33,215.705,219.752,217.819,216.831z"/>
		</g>
		<g>
			<g>
				<path style="fill:#C6493C;" d="M175.343,113.054c0.013,0,0.026-0.001,0.04-0.003c0.365-0.051,2.192-0.358,2.298-1.345
					c0.092-0.863-1.321-3.468-1.605-3.982c-0.076-0.136-0.247-0.186-0.384-0.11c-0.136,0.076-0.186,0.247-0.11,0.384
					c0.625,1.129,1.594,3.117,1.538,3.648c-0.044,0.409-1.109,0.746-1.815,0.846c-0.154,0.022-0.262,0.164-0.24,0.319
					C175.084,112.952,175.205,113.054,175.343,113.054z"/>
			</g>
			<g>
				<path style="fill:#363435;" d="M179.784,108.14c0.037,0.481-0.287,0.899-0.724,0.932s-0.821-0.329-0.858-0.811
					c-0.037-0.481,0.287-0.899,0.724-0.932C179.363,107.296,179.747,107.659,179.784,108.14z"/>
			</g>
			<g>
				<path d="M169.893,105.922c0.067,0,0.135-0.024,0.189-0.072c1.222-1.097,2.792-0.301,2.807-0.292
					c0.138,0.072,0.309,0.018,0.381-0.12c0.072-0.138,0.018-0.309-0.12-0.381c-0.078-0.041-1.936-0.982-3.445,0.373
					c-0.116,0.104-0.126,0.283-0.021,0.399C169.738,105.89,169.815,105.922,169.893,105.922z"/>
			</g>
			<g>
				<path d="M177.68,105.215c0.061,0,0.122-0.02,0.174-0.06l0,0c0.041-0.032,1.007-0.767,1.968-0.088
					c0.127,0.09,0.304,0.06,0.393-0.068c0.09-0.127,0.059-0.304-0.068-0.393c-1.048-0.739-2.187-0.254-2.642,0.106
					c-0.122,0.097-0.143,0.274-0.047,0.396C177.514,105.179,177.597,105.215,177.68,105.215z"/>
			</g>
			<g>
				<path style="fill:#D65E42;" d="M172.56,114.716c3.899,0.727,5.561-0.037,5.561-0.037s0.228,2.419-2.027,2.717
					C172.868,117.823,172.56,114.716,172.56,114.716z"/>
			</g>
			<g>
				<path style="fill:none;" d="M177.988,114.73c0,0-0.082,0.452-0.118,0.544c-0.038,0.089-0.402,0.366-1.981,0.519
					c-1.335,0.131-2.739-0.203-3.136-0.309c-0.16-0.433-0.192-0.767-0.192-0.767c0.228,0.043,0.448,0.079,0.662,0.111
					c2.831,0.437,4.328,0.048,4.762-0.099C177.988,114.73,177.988,114.73,177.988,114.73z"/>
			</g>
			<g>
				
					<ellipse transform="matrix(0.9971 -0.0766 0.0766 0.9971 -7.8428 13.5274)" style="fill:#363435;" cx="172.362" cy="108.968" rx="0.817" ry="0.9"/>
			</g>
		</g>
	</g>
	<g>
		<g>
			<g>
				<g>
					<path style="fill:#E4ECF9;" d="M340.883,244.221v108.616c0,2.658-2.149,4.814-4.807,4.814H207.214
						c-2.658,0-4.807-2.156-4.807-4.814V244.221c0-2.658,2.149-4.807,4.807-4.807h128.862
						C338.734,239.414,340.883,241.563,340.883,244.221z"/>
				</g>
			</g>
			<g>
				<g>
					<path style="fill:none;" d="M207.214,354.939c-1.155,0-2.095-0.943-2.095-2.102v-96.679c0-1.155,0.94-2.095,2.095-2.095
						h128.862c1.155,0,2.095,0.94,2.095,2.095v96.679c0,1.159-0.94,2.102-2.095,2.102H207.214z"/>
				</g>
			</g>
		</g>
		<g>
			<g>
				<g>
					<circle style="fill:#2276D3;" cx="209.499" cy="247.726" r="2.027"/>
				</g>
			</g>
			<g>
				<g>
					<circle style="fill:#2276D3;" cx="214.916" cy="247.726" r="2.027"/>
				</g>
			</g>
			<g>
				<g>
					<circle style="fill:#2276D3;" cx="220.332" cy="247.726" r="2.027"/>
				</g>
			</g>
		</g>
	</g>
	<g>
		<path style="fill:#BACCDD;" d="M397.998,429.02c-1.71,1.16-3.46,2.27-5.26,3.33c-1.79,1.06-3.59,2.04-5.41,2.94
			c-7.18,0.13-14.94,0.21-23.03,0.21c-36.65,0-66.36-1.56-66.36-3.48c0-0.87,6.04-1.66,16.02-2.27c2.7-0.16,5.69-0.31,8.94-0.45
			c11.34-0.48,25.74-0.76,41.4-0.76C376.598,428.54,388.129,428.72,397.998,429.02z"/>
		<g>
			<g>
				<g>
					<path style="fill:#F89D13;" d="M267.196,164.78l-0.971-5.355c-0.164-0.906,0.477-1.76,1.393-1.854l31.103-3.199l-0.855-4.358
						c-0.2-1.022,0.524-1.993,1.561-2.092l24.973-2.377c0.849-0.081,1.605,0.534,1.701,1.381l5.828,51.841
						c0.07,0.62-0.374,1.18-0.993,1.255l-1.635,0.197L267.196,164.78z"/>
				</g>
				<g>
					<path style="fill:#F89D13;" d="M267.196,164.78l-0.971-5.355c-0.164-0.906,0.477-1.76,1.393-1.854l31.103-3.199l-0.855-4.358
						c-0.2-1.022,0.524-1.993,1.561-2.092l24.973-2.377c0.849-0.081,1.605,0.534,1.701,1.381l5.828,51.841
						c0.07,0.62-0.374,1.18-0.993,1.255l-1.635,0.197L267.196,164.78z"/>
				</g>
				<g>
					<polygon style="fill:#F3F6F9;" points="263.109,172.326 261.564,162.589 324.481,156.596 329.3,200.219 					"/>
				</g>
				<g>
					<path style="fill:#F89D13;" d="M270.16,205.001l-11.184-35.492c-0.383-1.217,0.45-2.477,1.72-2.601l55.531-5.42
						c0.817-0.08,1.576,0.43,1.812,1.216l11.261,37.516l-56.811,6.3C271.45,206.634,270.474,205.999,270.16,205.001z"/>
				</g>
			</g>
			<g>
				<g>
					<path style="fill:#CC724A;" d="M302.946,303.992c-0.015,0.453-0.055,0.877-0.117,1.282c-0.297,1.928-1.119,3.405-2.403,5.249
						c-0.592,0.848-1.454,0.739-1.649,0.182c-0.407,0.613-0.864,1.202-1.382,1.76c-0.743,0.808-1.644,0.354-1.663-0.379
						c-0.227,0.283-0.467,0.561-0.724,0.836c-1.021,1.086-2.21,0.03-1.179-1.066c1.38-1.466,2.059-3.186,2.558-5.014
						c-0.578,1.355-1.297,2.659-2.147,3.903c-0.79,1.153-2.219,0.18-1.432-0.968c1.482-2.169,2.336-4.741,2.775-7.369
						c-0.598,0.59-1.13,1.235-1.534,1.987c-0.658,1.222-2.086,0.269-1.424-0.966c1.375-2.549,2.656-4.124,4.881-5.999
						c0.017-0.015,0.035-0.022,0.054-0.036c2.523-4.594,5.046-9.188,7.57-13.782c7.211-12.449,9.357-14.53,9.995-14.231
						c0.644,0.301,0.416,3.337-4.721,17.323C307.918,292.468,305.432,298.23,302.946,303.992z"/>
					<g id="_x3C_Trazado_x3E_">
						<g>
							<g>
								<g>
									<path style="fill:#297EEC;" d="M397.924,406.203c0,0-1.091,13.094,1.637,12.869c3.574-0.295,8.968-19.812,8.968-19.812
										l1.271,1.099l1.738-2.543l-4.486-4.43L397.924,406.203z"/>
								</g>
							</g>
						</g>
						<g>
							<g>
								<g>
									<path style="fill:#CC724A;" d="M363.678,366.192l34.212,30.765c0,0-0.826,16.173,1.517,15.483
										c3.404-1.003,7.646-19.053,7.646-19.053l-26.864-33.079L363.678,366.192z"/>
								</g>
							</g>
						</g>
						<g>
							<g>
								<g>
									<path style="fill:#297EEC;" d="M321.77,421.008c0,0-9.881,8.66-7.763,10.394c2.776,2.271,20.214-8.02,20.214-8.02
										l0.151,1.674l3.017-0.622l-0.149-6.303L321.77,421.008z"/>
								</g>
							</g>
						</g>
						<g>
							<g>
								<g>
									<path style="fill:#CC724A;" d="M325.525,376.838l2.643,37.496c0,0-11.829,11.059-9.665,12.19
										c3.145,1.643,18.736-8.393,18.736-8.393l3.658-42.456L325.525,376.838z"/>
								</g>
							</g>
						</g>
						<g>
							<path style="fill:#F89D13;" d="M346.992,289.387c-8.98,0.749-17.605,1.153-26.462-0.863
								c-0.303-0.069-0.603-0.151-0.906-0.223l0,88.983l77.295-5.847c0,0-16.422-60.673-23.426-83.469
								C364.675,288.753,355.688,288.662,346.992,289.387z"/>
						</g>
						<g>
							<g>
								<g>
									<path style="fill:#CC7A0D;" d="M359.355,288.732l0.426,3.622l-8.573,1.014l-8.487,1.042l-0.533-4.673
										c-0.171,0.011-0.342,0.021-0.512,0.031l0.586,4.944v0.001c0.016,0.134,0.138,0.23,0.272,0.214l0.002,0l8.728-1.111
										l8.723-1.149l0.002,0c0.091-0.012,0.155-0.095,0.143-0.186l-0.497-3.758C359.541,288.725,359.448,288.729,359.355,288.732z
										"/>
								</g>
							</g>
						</g>
						<g>
							<g>
								<g>
									<path style="fill:#CC7A0D;" d="M382.39,339.218c-1.257-4.779-2.558-9.547-3.847-14.318
										c-1.295-4.769-2.597-9.536-3.914-14.3l-2.01-7.136l-2.046-7.126c-0.702-2.37-1.382-4.746-2.116-7.108
										c-0.09-0.296-0.188-0.589-0.278-0.885c-0.154,0.009-0.307,0.02-0.461,0.028l0.299,0.992
										c0.726,2.36,1.398,4.737,2.092,7.108l2.021,7.13l1.987,7.14c1.33,4.759,2.649,9.521,3.959,14.285l3.919,14.297
										l3.917,14.298l3.94,14.292c-1.207-4.793-2.453-9.575-3.687-14.36L382.39,339.218z"/>
								</g>
							</g>
						</g>
					</g>
					<path style="fill:none;" d="M325.627,259.097c0.095,18.174-3.545,32.929-3.545,32.929s16.352,8.308,35.786,2.193
						c0.227-0.072,13.901-3.943,13.901-3.943c-0.325-0.736-2.148-19.856-2.464-20.532c-4.104-8.811-5.222-12.51-5.708-15.217
						c-0.902-5.058-0.923-10.291-0.474-15.226c1.187-13.065,4.713-23.909,4.713-23.909c-5.294-1.205-10.254-3.26-15.763-5.326
						c-1.267,1.579-5.144,3.168-8.507,3.093c-3.871-0.085-5.124-1.742-4.926-3.552c-4.124,2.295-7.415,4.463-7.415,4.463
						c-3.506,6.09-10.616,12.005-11.133,21.345C319.965,237.713,325.624,258.589,325.627,259.097L325.627,259.097z"/>
					<path style="fill:#5F9AA8;" d="M358.469,261.124c1.67,2.362,4.868,16.723,12.832,18.528
						c-4.104-10.234-7.219-14.723-7.705-17.87c-0.902-5.871-0.923-11.95-0.474-17.683c-2.664-4.673-4.653-7.874-4.653-7.874
						c-0.21-0.756-4.236-13.205-5.526-2.078C351.655,245.277,356.604,258.482,358.469,261.124L358.469,261.124z"/>
					<path style="fill:#297EEC;" d="M336.802,211.36c-7.368,1.279-11.784,4.74-14.392,7.496
						c-10.298,10.878-4.883,23.915-15.618,48.018c-5.691,12.776-9.896,25.29-9.896,25.29l10.042,9.609
						C306.938,301.774,323.928,281.928,336.802,211.36z"/>
					<path style="fill:#297EEC;" d="M338.639,209.608c0,0-9.113,22.515-9.38,27.073c-0.267,4.555-1.072,74.517-1.072,74.517
						s0.534,3.216-5.63,1.874c-6.165-1.339-7.774-2.678-7.774-2.678s1.474-10.788,2.748-23.454
						c1.713-17.043,0.574-24.067,1.543-34.714c0.834-9.167,3.096-22.329,9.691-38.193
						C332.057,212.558,335.348,211.083,338.639,209.608z"/>
					<path style="fill:#297EEC;" d="M352.845,309.856c0,0,2.325,8.397,10.366,7.326c8.041-1.072,19.476-5.897,19.476-5.897
						s-3.437-10.857-7.708-25.123c-5.173-17.269-11.579-39.533-14.596-53.575c-0.848-3.937-1.425-7.222-1.641-9.576l-6.67-12.943
						c0,0-9.946,22.327-10.484,27.954C341.054,243.65,352.845,309.856,352.845,309.856L352.845,309.856z"/>
					<polygon style="fill:#297EEC;" points="358.239,229.786 367.832,215.405 352.072,210.067 351.988,212.538 					"/>
					<path style="fill:#CC724A;" d="M314.543,198.637c0.387,2.551,0.793,5.118,1.219,7.7c1.722,10.439,3.672,20.555,5.805,30.341
						c3.119-1.544,6.238-3.087,9.357-4.631c-2.168-10.982-4.336-21.964-6.503-32.946
						C321.128,198.946,317.835,198.791,314.543,198.637z"/>
					<g>
						<ellipse style="fill:#F89D13;" cx="349.179" cy="200.558" rx="3.383" ry="4.736"/>
						<path style="fill:#F89D13;" d="M337.038,198.942c0,0-0.752,7.442-1.955,8.269c0,0,3.082,1.052,7.142,0.752
							c4.06-0.301-3.082-9.923-3.082-9.923L337.038,198.942z"/>
						<path style="fill:#CC724A;" d="M348.553,196.487c0,0.416,0,16.457,0,16.457s-4.14,6.051-6.817,6.051
							c-2.677,0-2.255-5.244-2.255-5.244l-0.053-11.162L348.553,196.487z"/>
						<path style="fill:#CC724A;" d="M347.694,201.783c-0.056,0.092-2.489,6.904-8.244,4.297l-0.014-1.427
							C339.556,204.697,345.821,202.695,347.694,201.783z"/>
						<path style="fill:#CC724A;" d="M341.411,205.36c4.182,0.718,7.577-2.878,8.258-6.844l1.08-6.289
							c0.681-3.966-1.847-7.71-5.647-8.362l0,0c-3.8-0.653-7.432,2.033-8.113,5.999l-1.08,6.289
							C335.228,200.118,337.228,204.641,341.411,205.36z"/>
						<path style="fill:#F89D13;" d="M349.968,183.305c0,0,7.675,2.996,5.864,15.561c-0.219,1.521,1.255,4.359,1.128,5.413
							c-0.395,3.27-2.988,3.439-2.988,3.439l-8.401,0.056c0,0,3.8-2.618,4.099-9.259l1.258-7.543L349.968,183.305z"/>
						<path style="fill:#CC724A;" d="M352.34,196.712c-0.215,1.25-1.154,2.132-2.098,1.97c-1.754-0.301-1.535-1.307-1.32-2.557
							s1.154-2.132,2.098-1.97C351.964,194.318,352.555,195.462,352.34,196.712z"/>
						<path style="fill:#CC724A;" d="M351.764,195.919c-0.021-0.313-0.132-0.696-0.421-0.866c-0.25-0.147-0.646-0.04-0.709,0.265
							c-0.012,0.059,0.084,0.093,0.104,0.033c0.047-0.145,0.195-0.214,0.341-0.188c0.154,0.027,0.272,0.16,0.338,0.294
							c0.142,0.287,0.147,0.643,0.073,0.949c-0.075,0.311-0.248,0.618-0.498,0.822c-0.116,0.094-0.258,0.165-0.407,0.185
							c-0.127,0.018-0.299-0.003-0.404-0.078c-0.044-0.031-0.123,0.008-0.094,0.067c0.061,0.127,0.156,0.227,0.298,0.254
							c0.15,0.029,0.314-0.004,0.453-0.059c0.316-0.125,0.555-0.395,0.712-0.689C351.712,196.609,351.787,196.26,351.764,195.919z"
							/>
						<path style="fill:#F89D13;" d="M347.312,182.156c-2.613-0.706-4.419-0.009-5.577,0.875c-0.386-0.258-1.101-0.415-2.424-0.04
							c-1.021,0.288-1.927,1.786-2.269,2.996c-0.669,2.368-0.155,5.268-0.155,5.268s2.235-3.09,2.706-4.285
							c0.157-0.398,0.289-0.741,0.402-1.039c-0.012,1.487,0.283,4.341,2.681,4.741c0.227,0.037,0.464,0.069,0.711,0.093
							l-0.861-3.212l1.712,3.286c0.687,0.052,1.411,0.098,2.122,0.202l-1.428-2.963l2.35,3.136c0.7,0.163,1.364,0.414,1.934,0.811
							c1.051,0.733,0.325,4.324,0.264,4.628l0.785-2.412l0.007-0.022l0.026,0.007c0.232-0.087,0.475-0.115,0.72-0.072
							c0.412,0.071,0.761,0.332,0.999,0.709l0.011,0.006c0,0,1.231-2.133,1.363-4.559
							C353.52,187.883,352.594,183.58,347.312,182.156z"/>
					</g>
					<path style="fill:#CC724A;" d="M314.543,198.637c0,0-0.66-0.776-0.934-1.165c-1.303-1.848-1.803-3.744-2.216-6.316
						c-0.189-1.184,0.62-1.786,1.231-1.478c-0.154-0.839-0.245-1.698-0.262-2.582c-0.029-1.272,1.088-1.618,1.694-1.021
						c-0.038-0.419-0.061-0.844-0.068-1.281c-0.021-1.728,1.822-1.802,1.842-0.058c0.027,2.334,0.843,4.317,1.896,6.244
						c-0.607-1.596-1.056-3.263-1.346-4.986c-0.267-1.598,1.708-1.935,1.974-0.344c0.507,3.003,1.863,5.838,3.61,8.385
						c0.025-0.973-0.05-1.94-0.316-2.893c-0.434-1.549,1.525-1.903,1.966-0.338c0.903,3.234,1.099,5.581,0.749,8.935
						c-0.002,0.026-0.012,0.046-0.016,0.074c-0.584,1.699-1.167,3.397-1.751,5.096c1.973,2.24,2.531,5.386,1.435,8.109
						c-1.584,3.931-5.709,4.719-5.953,4.761C316.899,211.398,314.543,198.637,314.543,198.637z"/>
					<g id="XMLID_00000127759151976809373790000012919405063121597595_">
						<path style="fill:#995033;" d="M317.498,190.736l0.154-0.081c0.019,0.036,1.891,3.6,2.817,4.016l-0.071,0.159
							c-0.338-0.152-0.779-0.668-1.214-1.286C318.356,192.371,317.549,190.833,317.498,190.736z"/>
					</g>
					<g id="XMLID_00000132084165269618915410000015351349651314565528_">
						<path style="fill:#995033;" d="M313.971,186.095l0.17-0.036c0.013,0.062,1.367,6.252,4.282,9.281l-0.125,0.121
							c-0.34-0.353-0.659-0.748-0.957-1.171C315.05,191.041,313.982,186.151,313.971,186.095z"/>
					</g>
					<g id="XMLID_00000097479095279054223030000018402348887085587604_">
						<path style="fill:#995033;" d="M312.54,189.703l0.166-0.053c0.019,0.061,1.949,6.087,3.617,6.472l-0.039,0.17
							c-0.429-0.099-0.867-0.525-1.284-1.118C313.702,193.335,312.6,189.894,312.54,189.703z"/>
					</g>
					<path style="fill:#CC724A;" d="M325.504,209.617"/>
					<path style="fill:#3B93F4;" d="M367.832,215.405c0,0,7.717,7.674,3.936,16.496c-2.613,6.097-21.515,33.501-39.636,28.965
						c-5.525-1.383-7.721-7.431-10.565-13.297c-6.034-12.452-5.487-24.27-4.774-30.191c1.243-0.717,2.812-1.481,4.691-2.099
						c2.853-0.938,5.4-1.204,7.281-1.246c1.288,4.444,2.719,9.035,4.308,13.754c1.531,4.546,3.109,8.908,4.709,13.082
						C347.799,232.381,357.816,223.893,367.832,215.405z"/>
				</g>
				<g>
					<g>
						<path style="fill:#C6493C;" d="M341.27,198.306c-0.01,0-0.02-0.001-0.03-0.002c-0.271-0.038-1.628-0.266-1.707-0.999
							c-0.068-0.641,0.981-2.576,1.192-2.957c0.056-0.101,0.184-0.138,0.285-0.082c0.101,0.056,0.138,0.184,0.082,0.285
							c-0.464,0.838-1.184,2.315-1.142,2.71c0.032,0.304,0.824,0.554,1.348,0.628c0.115,0.016,0.194,0.122,0.178,0.237
							C341.463,198.231,341.373,198.306,341.27,198.306z"/>
					</g>
					<g>
						<path style="fill:#363435;" d="M337.972,194.657c-0.027,0.357,0.213,0.667,0.538,0.692c0.324,0.025,0.61-0.245,0.637-0.602
							c0.027-0.357-0.213-0.667-0.538-0.692C338.285,194.03,337.999,194.299,337.972,194.657z"/>
					</g>
					<g>
						<path d="M345.318,193.01c-0.05,0-0.1-0.018-0.14-0.054c-0.908-0.815-2.073-0.223-2.085-0.217
							c-0.103,0.053-0.229,0.013-0.283-0.089c-0.053-0.103-0.013-0.229,0.089-0.283c0.058-0.03,1.438-0.729,2.559,0.277
							c0.086,0.077,0.093,0.21,0.016,0.296C345.433,192.986,345.375,193.01,345.318,193.01z"/>
					</g>
					<g>
						<path d="M339.534,192.485c-0.045,0-0.091-0.015-0.129-0.045l0,0c-0.03-0.024-0.748-0.57-1.462-0.066
							c-0.095,0.067-0.225,0.044-0.292-0.05c-0.067-0.095-0.044-0.225,0.05-0.292c0.779-0.549,1.624-0.188,1.962,0.079
							c0.091,0.072,0.106,0.204,0.035,0.294C339.658,192.458,339.596,192.485,339.534,192.485z"/>
					</g>
					<g>
						<path style="fill:#D65E42;" d="M343.337,199.541c-2.896,0.54-4.13-0.028-4.13-0.028s-0.169,1.797,1.505,2.018
							C343.108,201.848,343.337,199.541,343.337,199.541z"/>
					</g>
					<g>
						<path style="fill:none;" d="M339.306,199.551c0,0,0.061,0.336,0.087,0.404c0.028,0.066,0.299,0.272,1.471,0.385
							c0.991,0.097,2.034-0.151,2.329-0.229c0.119-0.322,0.142-0.569,0.142-0.569c-0.169,0.032-0.333,0.059-0.492,0.083
							c-2.103,0.324-3.214,0.036-3.537-0.073C339.306,199.551,339.306,199.551,339.306,199.551z"/>
					</g>
					<g>
						
							<ellipse transform="matrix(0.0766 -0.9971 0.9971 0.0766 122.4672 522.7834)" style="fill:#363435;" cx="343.484" cy="195.272" rx="0.669" ry="0.607"/>
					</g>
				</g>
			</g>
		</g>
	</g>
</g>
<g id="TEXTS">
</g>
</svg>
