<?xml version="1.0" encoding="utf-8"?>
<!-- Generator: Adobe Illustrator 27.5.0, SVG Export Plug-In . SVG Version: 6.00 Build 0)  -->
<svg version="1.1" xmlns="http://www.w3.org/2000/svg" xmlns:xlink="http://www.w3.org/1999/xlink" x="0px" y="0px"
	 viewBox="0 0 500 500" style="enable-background:new 0 0 500 500;" xml:space="preserve">
<g id="BACKGROUND">
	<rect style="fill:none;" width="500" height="500"/>
</g>
<g id="OBJECTS">
	<g>
		<path style="fill-rule:evenodd;clip-rule:evenodd;fill:#EEF5FF;" d="M176.118,106.07c-14.66-19.91-55.6-15.58-90.52,10.14
			c-34.92,25.71-46.06,57.24-31.39,77.15c14.66,19.92,54.24,15.24,89.16-10.48C178.288,157.17,190.788,125.98,176.118,106.07z
			 M460.278,243.36c-4.7-16.17-14.87-27.45-22.7-25.17c-7.83,2.27-10.38,17.24-5.69,33.41c4.69,16.17,14.86,27.45,22.7,25.18
			C462.419,274.5,464.968,259.53,460.278,243.36z M450.958,358.94c-0.01-0.61-0.03-1.22-0.07-1.83c-0.01-0.49-0.04-0.98-0.07-1.46
			c-0.02-0.26-0.03-0.51-0.06-0.76c-0.05-0.82-0.13-1.64-0.21-2.45c-0.03-0.34-0.07-0.69-0.11-1.03c-0.03-0.28-0.06-0.56-0.1-0.84
			c-0.08-0.66-0.16-1.31-0.26-1.96c0-0.04-0.01-0.08-0.02-0.13c-0.09-0.62-0.19-1.24-0.29-1.86c-0.07-0.45-0.15-0.89-0.24-1.33
			c-0.08-0.45-0.16-0.9-0.26-1.35c-0.03-0.18-0.07-0.36-0.11-0.55c-0.13-0.65-0.27-1.29-0.42-1.94c-0.01-0.05-0.02-0.11-0.04-0.17
			c-0.16-0.7-0.33-1.39-0.51-2.08c-0.02-0.08-0.04-0.16-0.06-0.24c-0.18-0.69-0.36-1.37-0.56-2.05c-0.03-0.13-0.07-0.27-0.11-0.4
			c-0.18-0.61-0.36-1.22-0.55-1.82c-0.29-0.95-0.6-1.89-0.92-2.81c-0.2-0.6-0.41-1.2-0.63-1.79c-0.21-0.58-0.42-1.15-0.64-1.72
			c-0.09-0.23-0.17-0.45-0.26-0.67c-0.52-1.33-1.07-2.65-1.63-3.94c-9.43-21.71-24.36-38.45-29.67-56.2
			c-8.11-27.08-0.5-45.28-8.11-74.2c-7.6-28.91-27.59-50.32-56.14-63.89c-14.97-7.11-35.12-12.36-55.31-13.41
			c-0.66-0.05-1.31-0.08-1.97-0.09c-17.64-0.71-35.19,1.86-49.21,9.22c-30.57,16.06-47.13,51.42-80.54,76.03
			c-55.06,40.54-123.41,45.66-127.02,122.54c-0.01,0.26-0.02,0.51-0.03,0.77c-0.03,0.5-0.04,1.01-0.06,1.53
			c-0.01,0.31-0.01,0.61-0.02,0.92c-0.01,0.55-0.02,1.09-0.03,1.64c0,0.55-0.01,1.11-0.01,1.66c0,0.96,0.01,1.92,0.03,2.9
			c0.27,13.7,4.27,26.14,10.11,37.08c17.09,31.91,50.34,51.83,86.53,51.83h257.61c9.78,0.01,19.32-2.28,27.9-6.53
			c0.95-0.47,1.89-0.97,2.82-1.49c1.4-0.78,2.76-1.62,4.09-2.5c1.33-0.89,2.64-1.83,3.9-2.82c0.85-0.66,1.67-1.34,2.49-2.05
			c1.62-1.41,3.18-2.91,4.66-4.49c8.63-9.26,15.86-22.1,16.14-39.3c0.01-0.52,0.01-1.03,0.01-1.55
			C450.998,360.55,450.988,359.74,450.958,358.94z"/>
		<path style="fill-rule:evenodd;clip-rule:evenodd;fill:#DDE9FC;" d="M442.832,323.763c4.957,11.396,8.403,24.155,8.157,39.143
			c-0.282,17.199-7.507,30.045-16.142,39.299c-11.877,12.689-28.481,19.89-45.861,19.888c-47.901,0-190.562,0-257.604-0.009
			c-36.193,0-69.449-19.918-86.531-51.825c-5.839-10.941-9.841-23.38-10.11-37.085c-0.064-3.249-0.023-6.38,0.119-9.412H442.832
			L442.832,323.763z"/>
	</g>
	<g>
		<g>
			<path style="fill:#F4B10B;" d="M257.986,199.382c0.553,0,1.001-0.448,1.001-1.001V88.846h25.666c0.553,0,1.001-0.448,1.001-1.001
				s-0.448-1.001-1.001-1.001h-27.668v111.538C256.985,198.934,257.434,199.382,257.986,199.382z"/>
			<path style="fill:#D39711;" d="M257.986,199.382c-0.553,0-1.001-0.448-1.001-1.001v-6.51h2.002v6.51
				C258.987,198.934,258.539,199.382,257.986,199.382z"/>
		</g>
		<g>
			<g>
				<path style="fill:#F89D13;" d="M296.995,66.02c7.276-4.201,16.24-4.201,23.517,0h0c7.276,4.201,11.758,11.964,11.758,20.366
					c0,8.402-4.482,16.165-11.758,20.366l0,0c-7.276,4.201-16.24,4.201-23.517,0v0c-7.276-4.201-11.758-11.964-11.758-20.366
					C285.237,77.984,289.719,70.221,296.995,66.02z"/>
				<g>
					<path style="fill:none;" d="M308.73,101.577c-2.395,0-3.948-1.73-3.948-4.036c0.047-2.351,1.596-4.036,3.948-4.036
						s3.994,1.685,3.994,4.036C312.724,99.847,311.128,101.577,308.73,101.577z M306.202,91.288l-0.975-20.094h7.054l-1.022,20.094
						H306.202z"/>
				</g>
			</g>
		</g>
	</g>
	<g>
		<g>
			<path style="fill:#F4B10B;" d="M328.861,287.428c0-0.561,0.455-1.016,1.016-1.016h89.07V162.704c0-0.561,0.455-1.016,1.016-1.016
				c0.561,0,1.016,0.455,1.016,1.016v125.74h-91.102C329.316,288.444,328.861,287.989,328.861,287.428z"/>
			<path style="fill:#F89D13;" d="M328.861,287.428c0-0.561,0.455-1.016,1.016-1.016h7.151v2.032h-7.151
				C329.316,288.444,328.861,287.989,328.861,287.428z"/>
		</g>
		<g>
			<g>
				<path style="fill:#F89D13;" d="M386.092,164.867h32.077c1.48,6.289,7.113,10.976,13.854,10.976
					c7.868,0,14.246-6.378,14.246-14.246c0-7.868-6.378-14.246-14.246-14.246c-6.741,0-12.374,4.687-13.854,10.976h-32.077V164.867z
					 M424.964,161.596c0-3.898,3.16-7.059,7.059-7.059c3.898,0,7.059,3.16,7.059,7.059c0,3.898-3.16,7.059-7.059,7.059
					C428.124,168.655,424.964,165.495,424.964,161.596z"/>
				<g>
					<polygon style="fill:#F89D13;" points="400.295,164.867 400.295,174.738 395.841,174.738 395.841,169.802 393.747,169.802 
						393.747,174.738 389.293,174.738 389.293,164.867 					"/>
					<rect x="389.293" y="164.867" style="fill:#CC7E0D;" width="11.002" height="3.788"/>
				</g>
			</g>
		</g>
	</g>
	<g>
		<polygon style="fill:#D17E11;" points="102.849,148.385 166.812,196.235 230.775,148.385 		"/>
		<polygon style="fill:#D17E11;" points="102.849,148.385 166.812,100.535 230.775,148.385 		"/>
		<rect x="108.906" y="119.44" style="fill:#184785;" width="115.811" height="70.52"/>
		<g>
			<path style="fill:none;" d="M164.678,138.847c-5.646,0-11.161,2.494-11.161,10.223c0,3.25,1.829,6.144,4.457,8.016v1.71
				c0,1.336,0.92,2.454,2.16,2.763v-0.773c0-0.329,0.267-0.595,0.595-0.595c0.329,0,0.595,0.267,0.595,0.595v0.86h1.389v-0.86
				c0-0.329,0.267-0.595,0.595-0.595s0.595,0.267,0.595,0.595v0.86h1.389v-0.86c0-0.329,0.267-0.595,0.595-0.595
				c0.329,0,0.595,0.267,0.595,0.595v0.86h1.389v-0.86c0-0.329,0.267-0.595,0.595-0.595c0.329,0,0.595,0.267,0.595,0.595v0.773
				c1.24-0.309,2.16-1.427,2.16-2.763v-1.641c2.636-1.87,4.457-4.795,4.457-8.085C175.682,141.341,170.324,138.847,164.678,138.847z
				 M162.101,152.957c-1.729,1.386-4.056,1.356-5.197-0.068c-1.141-1.424-0.664-3.701,1.065-5.088
				c1.729-1.386,4.056-1.356,5.197,0.068C164.308,149.293,163.831,151.571,162.101,152.957z M163.543,156.192l1.056-1.83l1.056,1.83
				H163.543z M172.296,152.89c-1.141,1.424-3.468,1.454-5.198,0.068c-1.729-1.386-2.206-3.664-1.065-5.088
				c1.141-1.424,3.468-1.454,5.197-0.068C172.96,149.188,173.437,151.466,172.296,152.89z"/>
			<g>
				<g>
					<g>
						<path style="fill:none;" d="M179.858,171.485l-27.041-11.676c0.573-1.327-0.038-2.867-1.365-3.439
							c-1.327-0.573-2.867,0.038-3.439,1.365c-0.421,0.974-0.201,2.061,0.469,2.798c-0.996,0.017-1.938,0.603-2.358,1.577
							c-0.573,1.327,0.038,2.867,1.365,3.439c1.327,0.573,2.867-0.038,3.439-1.365l27.041,11.676
							c-0.573,1.327,0.038,2.867,1.365,3.439c1.327,0.573,2.867-0.038,3.439-1.365c0.421-0.974,0.201-2.061-0.469-2.798
							c0.996-0.017,1.938-0.603,2.358-1.577c0.573-1.327-0.038-2.867-1.365-3.439C181.971,169.547,180.431,170.158,179.858,171.485z
							"/>
					</g>
				</g>
				<g>
					<g>
						<path style="fill:none;" d="M149.342,171.485l27.041-11.676c-0.573-1.327,0.038-2.867,1.365-3.439
							c1.327-0.573,2.867,0.038,3.44,1.365c0.42,0.974,0.201,2.061-0.469,2.798c0.996,0.017,1.938,0.603,2.358,1.577
							c0.573,1.327-0.038,2.867-1.365,3.439c-1.327,0.573-2.867-0.038-3.439-1.365l-27.041,11.676
							c0.573,1.327-0.038,2.867-1.365,3.439c-1.327,0.573-2.867-0.038-3.439-1.365c-0.42-0.974-0.201-2.061,0.469-2.798
							c-0.996-0.017-1.938-0.603-2.358-1.577c-0.573-1.327,0.038-2.867,1.365-3.439
							C147.229,169.547,148.769,170.158,149.342,171.485z"/>
					</g>
				</g>
			</g>
		</g>
		<polygon style="fill:#D17E11;" points="102.849,230.975 166.812,183.124 230.775,230.975 		"/>
		<g>
			<polygon style="fill:#F89D13;" points="102.849,148.385 102.849,230.975 158.049,189.68 			"/>
			<polygon style="fill:#F89D13;" points="175.575,189.68 230.775,230.975 230.775,148.385 			"/>
		</g>
	</g>
	<g>
		<path style="fill:#A9CBF7;" d="M322.946,156.107H250.79c-1.739,0-3.149,1.41-3.149,3.149v62.42c0,1.739,1.41,3.149,3.149,3.149
			h72.156c1.739,0,3.149-1.41,3.149-3.149v-62.42C326.095,157.517,324.685,156.107,322.946,156.107z M286.868,166.493
			c-2.462,0-4.457-1.995-4.457-4.457c0-2.462,1.995-4.457,4.457-4.457c2.462,0,4.457,1.995,4.457,4.457
			C291.325,164.498,289.329,166.493,286.868,166.493z"/>
		<path style="fill:none;" d="M282.92,159.966c-1.014-0.89-1.699-2.228-1.915-3.858h-2.774c0.309,3.163,1.92,5.661,4.292,6.922
			c-0.075-0.319-0.113-0.651-0.113-0.993C282.41,161.289,282.595,160.584,282.92,159.966z"/>
		<g>
			<g>
				<path style="fill:#184785;" d="M296.489,143.829h-0.002c-0.28-1.524-1.42-2.749-2.893-3.144
					c-0.339-0.092-0.693-0.139-1.06-0.136c-0.311,0.003-0.613,0.041-0.903,0.111c-1.766,0.425-3.068,2.025-3.054,3.919
					c0.011,1.709,1.107,3.171,2.628,3.713l0.195,6.675c0,0.011,0,0.025,0,0.025c0.003,0.384-0.02,0.757-0.065,1.115h2.803
					c0.043-0.572,0.033-0.986,0.031-1.137l-0.193-6.698c0.908-0.337,1.649-0.998,2.103-1.837c0.003,0,0.008,0.002,0.011,0.002
					c0.015-0.029,0.026-0.061,0.041-0.09c0.018-0.036,0.034-0.074,0.051-0.111c0.062-0.131,0.116-0.267,0.164-0.406
					c0.018-0.051,0.034-0.101,0.049-0.154c0.043-0.142,0.075-0.286,0.101-0.433c0.007-0.044,0.016-0.085,0.023-0.129
					c0.028-0.195,0.046-0.391,0.044-0.594C296.569,144.283,296.546,144.051,296.489,143.829z M294.886,145.067
					c-0.008,0.036-0.02,0.07-0.029,0.106c-0.038,0.141-0.09,0.276-0.152,0.406c-0.015,0.029-0.026,0.059-0.043,0.088
					c-0.17,0.317-0.409,0.592-0.698,0.798c-0.396,0.293-0.864,0.453-1.382,0.456c-0.53,0.003-1.001-0.162-1.389-0.447
					c-0.605-0.417-0.996-1.114-1.003-1.909c-0.01-1.312,1.042-2.393,2.355-2.403c0.904-0.007,1.69,0.502,2.1,1.246
					c0.062,0.11,0.111,0.224,0.155,0.342c0.028,0.08,0.057,0.16,0.077,0.245c0.036,0.146,0.057,0.296,0.062,0.451
					c0,0.028,0.008,0.054,0.008,0.082C294.95,144.715,294.925,144.893,294.886,145.067z M290.22,159.102
					c-0.919,1.282-2.319,2.046-4.001,2.059c-1.289,0.01-2.417-0.424-3.299-1.196c-1.014-0.89-1.699-2.228-1.915-3.858
					c-0.044-0.342-0.069-0.695-0.072-1.062l-0.033-4.468l2.854-0.021c-2.684-1.317-5.162-7.224-5.677-8.533l0.098,13.044
					c0.003,0.353,0.021,0.7,0.056,1.04c0.309,3.163,1.92,5.661,4.292,6.922c1.094,0.582,2.352,0.903,3.718,0.903
					c2.285,0,3.912-0.643,5.07-1.587c0.01-0.101,0.013-0.204,0.013-0.309C291.324,160.913,290.908,159.886,290.22,159.102z"/>
			</g>
			<path style="fill:#184785;" d="M293.598,116.06v25.39h-1.97v-25.48C292.288,115.98,292.938,116.01,293.598,116.06z"/>
		</g>
		<g>
			<rect x="256.986" y="182.654" style="fill:none;" width="63.351" height="14.173"/>
			<rect x="251.052" y="182.654" style="fill:#F99746;" width="14.173" height="14.173"/>
			<g>
				<g>
					<g>
						<rect x="272.69" y="186.452" style="fill:#93BBE5;" width="0.72" height="6.839"/>
						<path style="fill:#93BBE5;" d="M273.599,193.481H272.5v-7.218h1.099V193.481z M272.879,193.102h0.341v-6.46h-0.341V193.102z"
							/>
					</g>
					<g>
						
							<rect x="272.69" y="186.452" transform="matrix(0.5 -0.866 0.866 0.5 -27.9078 331.4062)" style="fill:#93BBE5;" width="0.72" height="6.839"/>
						<path style="fill:#93BBE5;" d="M275.901,192.152l-6.251-3.609l0.549-0.952l6.251,3.609L275.901,192.152z M270.167,188.404
							l5.595,3.23l0.17-0.295l-5.595-3.23L270.167,188.404z"/>
					</g>
					<g>
						
							<rect x="272.69" y="186.452" transform="matrix(0.5 0.866 -0.866 0.5 300.9649 -141.5317)" style="fill:#93BBE5;" width="0.72" height="6.839"/>
						<path style="fill:#93BBE5;" d="M270.199,192.152l-0.549-0.952l6.251-3.609l0.549,0.952L270.199,192.152z M270.167,191.339
							l0.17,0.295l5.595-3.23l-0.17-0.295L270.167,191.339z"/>
					</g>
				</g>
				<g>
					<g>
						<rect x="282.037" y="186.452" style="fill:#93BBE5;" width="0.72" height="6.839"/>
						<path style="fill:#93BBE5;" d="M282.947,193.481h-1.099v-7.218h1.099V193.481z M282.227,193.102h0.341v-6.46h-0.341V193.102z"
							/>
					</g>
					<g>
						
							<rect x="282.038" y="186.452" transform="matrix(0.5 -0.866 0.866 0.5 -23.2369 339.4955)" style="fill:#93BBE5;" width="0.72" height="6.839"/>
						<path style="fill:#93BBE5;" d="M285.248,192.152l-6.251-3.609l0.549-0.952l6.251,3.609L285.248,192.152z M279.515,188.404
							l5.595,3.23l0.17-0.295l-5.595-3.23L279.515,188.404z"/>
					</g>
					<g>
						
							<rect x="282.038" y="186.452" transform="matrix(0.5 0.866 -0.866 0.5 305.6322 -149.6275)" style="fill:#93BBE5;" width="0.72" height="6.839"/>
						<path style="fill:#93BBE5;" d="M279.547,192.152l-0.549-0.952l6.251-3.609l0.55,0.952L279.547,192.152z M279.515,191.339
							l0.17,0.295l5.595-3.23l-0.17-0.295L279.515,191.339z"/>
					</g>
				</g>
				<g>
					<g>
						<rect x="291.385" y="186.452" style="fill:#93BBE5;" width="0.72" height="6.839"/>
						<path style="fill:#93BBE5;" d="M292.295,193.481h-1.099v-7.218h1.099V193.481z M291.575,193.102h0.341v-6.46h-0.341V193.102z"
							/>
					</g>
					<g>
						
							<rect x="291.385" y="186.452" transform="matrix(0.5 -0.866 0.866 0.5 -18.5632 347.5907)" style="fill:#93BBE5;" width="0.72" height="6.839"/>
						<path style="fill:#93BBE5;" d="M294.596,192.152l-6.251-3.609l0.549-0.952l6.251,3.609L294.596,192.152z M288.863,188.404
							l5.595,3.23l0.17-0.295l-5.595-3.23L288.863,188.404z"/>
					</g>
					<g>
						
							<rect x="291.385" y="186.452" transform="matrix(0.5 0.866 -0.866 0.5 310.306 -157.7228)" style="fill:#93BBE5;" width="0.72" height="6.839"/>
						<path style="fill:#93BBE5;" d="M288.894,192.152l-0.549-0.952l6.251-3.609l0.549,0.952L288.894,192.152z M288.863,191.339
							l0.17,0.295l5.595-3.23l-0.17-0.295L288.863,191.339z"/>
					</g>
				</g>
				<g>
					<g>
						<rect x="300.733" y="186.452" style="fill:#93BBE5;" width="0.72" height="6.839"/>
						<path style="fill:#93BBE5;" d="M301.642,193.481h-1.099v-7.218h1.099V193.481z M300.922,193.102h0.341v-6.46h-0.341V193.102z"
							/>
					</g>
					<g>
						
							<rect x="300.733" y="186.452" transform="matrix(0.5 -0.866 0.866 0.5 -13.8895 355.6859)" style="fill:#93BBE5;" width="0.72" height="6.839"/>
						<path style="fill:#93BBE5;" d="M303.944,192.152l-6.251-3.609l0.55-0.952l6.251,3.609L303.944,192.152z M298.21,188.404
							l5.595,3.23l0.17-0.295l-5.595-3.23L298.21,188.404z"/>
					</g>
					<g>
						
							<rect x="300.733" y="186.452" transform="matrix(0.5 0.866 -0.866 0.5 314.9798 -165.8181)" style="fill:#93BBE5;" width="0.72" height="6.839"/>
						<path style="fill:#93BBE5;" d="M298.242,192.152l-0.55-0.952l6.251-3.609l0.55,0.952L298.242,192.152z M298.21,191.339
							l0.17,0.295l5.595-3.23l-0.17-0.295L298.21,191.339z"/>
					</g>
				</g>
				<g>
					<g>
						<rect x="310.08" y="186.452" style="fill:#93BBE5;" width="0.72" height="6.839"/>
						<path style="fill:#93BBE5;" d="M310.99,193.481h-1.099v-7.218h1.099V193.481z M310.27,193.102h0.341v-6.46h-0.341V193.102z"/>
					</g>
					<g>
						
							<rect x="310.08" y="186.452" transform="matrix(0.5 -0.866 0.866 0.5 -9.2123 363.7875)" style="fill:#93BBE5;" width="0.72" height="6.839"/>
						<path style="fill:#93BBE5;" d="M313.291,192.152l-6.251-3.609l0.55-0.952l6.251,3.609L313.291,192.152z M307.558,188.404
							l5.595,3.23l0.17-0.295l-5.595-3.23L307.558,188.404z"/>
					</g>
					<g>
						
							<rect x="310.08" y="186.452" transform="matrix(0.5 0.866 -0.866 0.5 319.6609 -173.9132)" style="fill:#93BBE5;" width="0.72" height="6.839"/>
						<path style="fill:#93BBE5;" d="M307.589,192.152l-0.55-0.952l6.251-3.609l0.55,0.952L307.589,192.152z M307.558,191.339
							l0.17,0.295l5.595-3.23l-0.17-0.295L307.558,191.339z"/>
					</g>
				</g>
			</g>
		</g>
	</g>
	<g>
		<g id="XMLID_00000113313210811450697320000007045842672772040337_">
			<g id="XMLID_00000129207929026380115750000015564111380085983143_">
				<path id="XMLID_00000140736152579488686400000006089936339042425253_" style="fill:#307175;" d="M88.894,278.576
					c-3.891-4.731-6.72-10.854-6.611-18.626c-0.34,0.07-3.952-24.359-24.005-29.626c0.14,0.092,14.849-2.154,30.898,2.255
					c12.457,3.422,21.841,13.783,24.022,26.516c1.886,11.013,5.696,24.694,14.263,29.134c-0.123,0.025-2.443,0.573-5.352,1.261
					C109.867,292.387,96.885,288.293,88.894,278.576z"/>
				<path id="XMLID_00000014612694979060722100000013450038404489894064_" style="fill:#307175;" d="M67.695,339.908
					c0,0,11.534-11.994,32.974-6.205c1.838-0.603,24.832,4.542,32.965-16.989C133.474,315.817,95.793,280,67.695,339.908z"/>
				<g id="XMLID_00000149351030143662258820000016283710326949017748_">
					<path id="XMLID_00000144336554340399063470000017322044428231490989_" style="fill:#307175;" d="M171.115,321.254
						c0.001-0.002,0.001-0.003,0.002-0.005c0.37-1.135-0.25-2.356-1.386-2.726c-9.77-3.185-14.146-11.033-17.661-17.338
						c-1.393-2.498-2.709-4.858-4.203-6.657c-6.948-8.364-25.589-9.827-26.379-9.885c-1.191-0.088-2.228,0.807-2.315,1.998
						c-0.088,1.191,0.807,2.227,1.998,2.315c4.876,0.363,18.578,2.567,23.37,8.335c1.238,1.491,2.403,3.58,3.752,5.999
						c3.679,6.598,8.717,15.634,20.098,19.344C169.524,323.004,170.743,322.386,171.115,321.254z"/>
				</g>
				<g id="XMLID_00000100372763016862729330000001007459275263928984_">
					<path id="XMLID_00000124123816364484317990000014907144229673745574_" style="fill:#307175;" d="M172.27,321.559
						c0.35-1.066-0.177-2.237-1.231-2.672c-15.476-6.382-41.09-3.172-42.173-3.032c-1.184,0.153-2.02,1.237-1.868,2.421
						c0.153,1.184,1.237,2.021,2.421,1.868c0.254-0.033,25.562-3.201,39.971,2.741c1.104,0.455,2.368-0.071,2.823-1.175
						C172.235,321.66,172.254,321.61,172.27,321.559z"/>
				</g>
				<path id="XMLID_00000072983530336377518110000010419446701906301619_" style="fill:#448C8C;" d="M132.912,290.649
					c0,0,3.616-10.164,9.196-20.258c4.705-8.511,12.068-15.197,20.859-19.356c8.223-3.89,21.676-14.426,24.878-35.725
					c-12.031,4.856-21.442,5.191-37.192,8.608C131.499,228.074,106.519,262.004,132.912,290.649z"/>
				<path id="XMLID_00000101088904382665311760000000603011956221590951_" style="fill:#448C8C;" d="M124.979,295.366
					c-11.006-15.475-33.956-16.238-45.726-1.336c-0.95,1.203-1.87,2.512-2.752,3.937c-0.801,1.565-11.565,6.472-22.414,2.394
					c-0.04,0.149,0.156,0.951,0.624,2.172c6.254,16.315,26.856,21.42,40.199,10.138c9.437-7.979,21.946-17.361,30.636-16.282
					C125.734,296.492,125.496,296.092,124.979,295.366z"/>
				<path id="XMLID_00000093160612329911095360000010390226745326800026_" style="fill:#448C8C;" d="M128.763,328.128
					c-12.797-4.338-26.781,3.033-30.155,16.118c-1.397,5.42-0.969,11.828,0.437,19.722c4.425,24.839-15.585,32.87-15.585,32.87
					s33.191,2.981,37.888-29.988c0.969-0.747-1.378-29.83,8.42-38.157C130.119,328.652,129.685,328.44,128.763,328.128z"/>
				<g id="XMLID_00000039825256117331718070000012077503494716827066_">
					<path id="XMLID_00000094589425057898199810000006702845247218054544_" style="fill:#448C8C;" d="M171.133,319.446
						c0.366-1.113-0.223-2.321-1.334-2.713c-29.348-10.369-35.035-27.405-35.089-27.576c-0.36-1.139-1.575-1.77-2.713-1.41
						c-1.138,0.36-1.77,1.575-1.41,2.713c0.247,0.782,6.412,19.27,37.772,30.35c1.126,0.398,2.361-0.192,2.759-1.318
						C171.123,319.477,171.128,319.461,171.133,319.446z"/>
				</g>
				<g id="XMLID_00000106838082465302542660000012174312102117471638_">
					<path id="XMLID_00000125590658604142900320000014246712535885770156_" style="fill:#448C8C;" d="M173.009,314.131
						c0.247-0.752,0.071-1.612-0.528-2.209c-14.622-14.572-53.278-20.604-54.917-20.853c-1.18-0.18-2.285,0.632-2.463,1.812
						c-0.18,1.181,0.631,2.284,1.812,2.464c0.387,0.059,38.895,6.067,52.515,19.641c0.846,0.843,2.215,0.841,3.058-0.005
						C172.733,314.733,172.907,314.441,173.009,314.131z"/>
				</g>
				<g id="XMLID_00000039119549674768147410000017220472763492390312_">
					<path id="XMLID_00000128457503213923126620000001600185675754077628_" style="fill:#448C8C;" d="M170.157,324.857
						c0.344-1.045-0.156-2.2-1.184-2.652c-9.114-4.009-20.151-3.665-31.919,0.997c-8.752,3.467-14.791,8.045-15.044,8.238
						c-0.949,0.725-1.131,2.082-0.405,3.031c0.725,0.949,2.081,1.13,3.03,0.406l0,0c0.229-0.174,23.066-17.306,42.596-8.714
						c1.093,0.481,2.369-0.016,2.85-1.109C170.11,324.989,170.135,324.923,170.157,324.857z"/>
				</g>
				<g id="XMLID_00000010271691925275647310000008746382166694539694_">
					<path id="XMLID_00000062885871989187838080000014100004957234466738_" style="fill:#307175;" d="M189.372,215.814
						c0.16-0.488,0.085-1.045-0.252-1.483c-0.541-0.704-1.55-0.837-2.254-0.295c-0.216,0.166-21.719,16.642-32.442,20.999
						c-6.686,2.717-18.556,11.685-23.85,25.255c-4.112,10.545-3.521,21.57,1.763,32.768c0.379,0.803,1.337,1.147,2.14,0.768
						c0.803-0.379,1.147-1.337,0.768-2.14c-4.892-10.368-5.454-20.534-1.675-30.227c4.925-12.624,15.894-20.937,22.065-23.445
						c11.125-4.521,32.295-20.74,33.19-21.428C189.09,216.381,189.275,216.11,189.372,215.814z"/>
				</g>
				<g id="XMLID_00000163030733736298154860000015857067665254411648_">
					<path id="XMLID_00000158732255459914927820000015324402058879519125_" style="fill:#307175;" d="M124.632,294.767
						c0.004-0.012,0.008-0.023,0.011-0.035c0.258-0.85-0.221-1.748-1.071-2.006c-0.831-0.252-1.806-0.638-2.936-1.086
						c-3.637-1.439-8.618-3.411-14.585-3.132c-7.009,0.327-13.843,3.779-20.313,10.261c-6.361,6.373-13.379,8.416-20.858,6.072
						c-5.72-1.792-9.624-5.586-9.663-5.624c-0.633-0.622-1.65-0.615-2.273,0.017c-0.623,0.631-0.618,1.647,0.013,2.271
						c0.177,0.175,4.415,4.319,10.841,6.367c6.021,1.919,15.109,2.292,24.215-6.831c13.49-13.514,24.292-9.239,31.44-6.41
						c1.196,0.473,2.228,0.882,3.185,1.172C123.475,296.057,124.36,295.595,124.632,294.767z"/>
				</g>
				<g id="XMLID_00000056412322904284329800000002489995156552916876_">
					<path id="XMLID_00000039130986487899535010000014064903713892566179_" style="fill:#307175;" d="M131.06,329.696
						c0.049-0.15,0.077-0.31,0.08-0.477c0.014-0.888-0.694-1.619-1.582-1.633c-0.462-0.007-11.4-0.094-17.626,7.449
						c-3.924,4.753-5.033,11.37-3.294,19.663c2.603,12.415-1.847,21.728-6.037,27.354c-6.337,8.509-15.086,12.831-19.275,13.184
						c-0.885,0.074-1.542,0.852-1.468,1.737c0.074,0.885,0.852,1.542,1.737,1.468c5.59-0.47,15.055-5.7,21.584-14.467
						c4.585-6.156,9.453-16.347,6.605-29.935c-1.528-7.289-0.645-12.994,2.627-16.957c5.253-6.364,14.997-6.283,15.095-6.281
						C130.228,330.812,130.846,330.347,131.06,329.696z"/>
				</g>
			</g>
		</g>
		<g id="XMLID_263_">
			<g id="XMLID_252_">
				<path id="XMLID_262_" style="fill:#307175;" d="M360.351,221.655c-0.773-6.076-3.287-12.335-9.017-17.588
					c0.284-0.199-15.013-19.586-5.089-37.789c-0.029,0.165-11.753,9.327-19.556,24.029c-6.056,11.411-4.954,25.347,2.815,35.669
					c6.719,8.927,14.06,21.085,11.414,30.364c0.103-0.072,2.093-1.385,4.589-3.029C356.012,246.389,361.939,234.135,360.351,221.655
					z"/>
				<path id="XMLID_261_" style="fill:#307175;" d="M419.519,248.303c0,0-16.639,0.165-27.134,19.736
					c-1.699,0.923-13.73,21.184-34.975,12.332C356.866,279.638,356.655,227.652,419.519,248.303z"/>
				<g id="XMLID_260_">
					<path id="XMLID_211_" style="fill:#307175;" d="M335.001,310.756c-0.002-0.001-0.003-0.002-0.005-0.002
						c-1.08-0.509-1.542-1.798-1.033-2.878c4.385-9.293,1.676-17.861-0.5-24.745c-0.862-2.727-1.677-5.303-1.96-7.624
						c-1.319-10.794,10.404-25.36,10.904-25.974c0.753-0.927,2.116-1.068,3.042-0.314c0.927,0.753,1.067,2.115,0.314,3.042
						c-3.081,3.797-10.877,15.279-9.967,22.722c0.235,1.924,0.956,4.205,1.791,6.845c2.277,7.203,5.396,17.067,0.288,27.894
						C337.365,310.799,336.08,311.262,335.001,310.756z"/>
				</g>
				<g id="XMLID_259_">
					<path id="XMLID_210_" style="fill:#307175;" d="M334.43,311.806c-1.016-0.476-1.507-1.663-1.1-2.728
						c5.973-15.638,25.88-32.074,26.724-32.766c0.924-0.757,2.285-0.621,3.043,0.302c0.757,0.924,0.622,2.286-0.301,3.043
						c-0.198,0.162-19.864,16.404-25.426,30.964c-0.426,1.116-1.676,1.675-2.792,1.248
						C334.528,311.85,334.478,311.829,334.43,311.806z"/>
				</g>
				<path id="XMLID_258_" style="fill:#448C8C;" d="M338.94,261.965c0,0-9.876-4.341-21.048-7.206
					c-9.42-2.416-19.336-1.644-28.393,1.899c-8.471,3.315-25.366,5.876-43.06-6.406c11.786-5.422,18.486-12.041,31.777-21.156
					C294.378,218.011,336.203,223.111,338.94,261.965z"/>
				<path id="XMLID_257_" style="fill:#448C8C;" d="M347.813,259.429c-3.709-18.624,11.479-35.846,30.396-34.187
					c1.527,0.134,3.111,0.363,4.753,0.698c1.689,0.491,12.642-3.975,17.118-14.666c0.136,0.074,0.585,0.766,1.152,1.944
					c7.581,15.743-2.838,34.235-20.2,36.204c-12.28,1.393-27.687,4.059-32.863,11.121
					C348.115,260.75,347.987,260.302,347.813,259.429z"/>
				<path id="XMLID_256_" style="fill:#448C8C;" d="M369.055,284.656c5.623-12.287,20.578-17.405,32.413-10.884
					c4.902,2.701,9.271,7.409,14.05,13.847c15.038,20.259,34.608,11.209,34.608,11.209s-20.6,26.195-47.81,6.996
					c-1.208,0.192-20.759-21.465-33.539-20.049C368.506,286.002,368.65,285.541,369.055,284.656z"/>
				<g id="XMLID_255_">
					<path id="XMLID_209_" style="fill:#448C8C;" d="M333.673,309.529c-1.061-0.497-1.535-1.755-1.059-2.832
						c12.588-28.467,4.094-44.291,4.007-44.448c-0.582-1.043-0.207-2.36,0.836-2.942c1.043-0.581,2.36-0.207,2.942,0.836
						c0.399,0.716,9.623,17.885-3.828,48.303c-0.483,1.092-1.76,1.586-2.852,1.103C333.702,309.543,333.687,309.536,333.673,309.529
						z"/>
				</g>
				<g id="XMLID_254_">
					<path id="XMLID_208_" style="fill:#448C8C;" d="M328.518,307.248c-0.717-0.336-1.222-1.054-1.245-1.899
						c-0.572-20.636,21.557-52.9,22.499-54.263c0.679-0.982,2.027-1.229,3.008-0.549c0.982,0.679,1.229,2.026,0.55,3.008
						c-0.223,0.322-22.267,32.462-21.734,51.684c0.033,1.194-0.908,2.188-2.102,2.221
						C329.146,307.46,328.814,307.386,328.518,307.248z"/>
				</g>
				<g id="XMLID_253_">
					<path id="XMLID_207_" style="fill:#448C8C;" d="M338.279,312.531c-0.996-0.467-1.493-1.623-1.117-2.681
						c3.335-9.382,11.157-17.176,22.621-22.54c8.526-3.99,16-5.243,16.314-5.295c1.179-0.193,2.291,0.606,2.483,1.784
						c0.193,1.178-0.605,2.289-1.783,2.483l0,0c-0.283,0.047-28.415,4.911-35.561,25.016c-0.4,1.125-1.636,1.713-2.762,1.313
						C338.408,312.587,338.342,312.56,338.279,312.531z"/>
				</g>
				<g id="XMLID_251_">
					<path id="XMLID_206_" style="fill:#307175;" d="M245.757,251.709c-0.465-0.218-0.818-0.655-0.906-1.201
						c-0.141-0.877,0.455-1.702,1.332-1.843c0.269-0.043,27.008-4.387,37.534-9.2c6.564-3.001,21.231-5.486,34.737-0.029
						c10.494,4.242,18.11,12.235,22.633,23.761c0.324,0.827-0.083,1.76-0.909,2.084c-0.826,0.325-1.76-0.082-2.084-0.909
						c-4.188-10.671-11.199-18.054-20.845-21.955c-12.564-5.076-26.137-2.798-32.195-0.028c-10.921,4.994-37.244,9.271-38.36,9.45
						C246.363,251.893,246.04,251.841,245.757,251.709z"/>
				</g>
				<g id="XMLID_245_">
					<path id="XMLID_203_" style="fill:#307175;" d="M347.616,258.765c-0.011-0.005-0.022-0.011-0.034-0.016
						c-0.795-0.395-1.12-1.36-0.725-2.155c0.386-0.777,0.775-1.752,1.224-2.881c1.448-3.634,3.431-8.611,7.726-12.761
						c5.046-4.875,12.246-7.48,21.401-7.741c9.001-0.257,15.301-3.962,18.727-11.011c2.62-5.392,2.538-10.834,2.536-10.889
						c-0.019-0.887,0.685-1.622,1.571-1.642c0.886-0.02,1.622,0.681,1.644,1.567c0.006,0.249,0.114,6.175-2.804,12.256
						c-2.734,5.697-8.697,12.566-21.582,12.933c-19.087,0.545-23.387,11.337-26.232,18.478c-0.476,1.195-0.887,2.226-1.332,3.122
						C349.348,258.808,348.404,259.134,347.616,258.765z"/>
				</g>
				<g id="XMLID_109_">
					<path id="XMLID_202_" style="fill:#307175;" d="M368.621,287.403c-0.143-0.067-0.279-0.157-0.402-0.269
						c-0.656-0.599-0.702-1.616-0.103-2.271c0.312-0.342,7.751-8.359,17.512-7.715c6.151,0.405,11.725,4.138,16.567,11.092
						c7.248,10.41,17.076,13.562,24.044,14.372c10.538,1.226,19.685-2.174,22.815-4.981c0.661-0.593,1.678-0.538,2.27,0.124
						c0.593,0.661,0.537,1.678-0.124,2.27c-4.177,3.745-14.475,7.044-25.333,5.781c-7.625-0.887-18.379-4.336-26.311-15.729
						c-4.255-6.112-9.012-9.383-14.14-9.721c-8.234-0.543-14.859,6.602-14.925,6.675
						C370.004,287.563,369.241,287.694,368.621,287.403z"/>
				</g>
			</g>
		</g>
	</g>
	<g>
		<path style="fill:#CBDBEF;" d="M417.8,347.299h-3.396v-3.408c0-0.734-0.595-1.323-1.329-1.323c-0.737,0-1.326,0.59-1.326,1.323
			v3.408h-3.399c-0.734,0-1.327,0.583-1.327,1.317c0,0.734,0.593,1.335,1.327,1.335h3.399v3.393c0,0.734,0.589,1.332,1.326,1.332
			c0.734,0,1.329-0.599,1.329-1.332v-3.393h3.396c0.734,0,1.329-0.601,1.329-1.335C419.129,347.883,418.534,347.299,417.8,347.299z"
			/>
		<path style="fill:#CBDBEF;" d="M76.864,369.723h-3.396v-3.408c0-0.734-0.595-1.323-1.329-1.323c-0.737,0-1.327,0.59-1.327,1.323
			v3.408h-3.399c-0.734,0-1.327,0.583-1.327,1.317c0,0.734,0.593,1.335,1.327,1.335h3.399v3.393c0,0.734,0.589,1.332,1.327,1.332
			c0.734,0,1.329-0.599,1.329-1.332v-3.393h3.396c0.734,0,1.329-0.602,1.329-1.335C78.193,370.306,77.598,369.723,76.864,369.723z"
			/>
		<g>
			<path style="fill:#CBDBEF;" d="M342.349,138.847c0,3.269,2.662,5.931,5.928,5.931c3.269,0,5.928-2.662,5.928-5.931
				c0-3.267-2.659-5.931-5.928-5.931C345.011,132.916,342.349,135.581,342.349,138.847z M344.623,138.847
				c0-2.015,1.639-3.657,3.654-3.657c2.018,0,3.654,1.642,3.654,3.657c0,2.018-1.636,3.654-3.654,3.654
				C346.262,142.502,344.623,140.865,344.623,138.847z"/>
		</g>
		<g>
			<path style="fill:#CBDBEF;" d="M387.565,131.127c0,3.269,2.662,5.931,5.928,5.931c3.269,0,5.928-2.662,5.928-5.931
				c0-3.267-2.659-5.931-5.928-5.931C390.227,125.196,387.565,127.861,387.565,131.127z M389.839,131.127
				c0-2.015,1.639-3.657,3.654-3.657c2.018,0,3.654,1.642,3.654,3.657c0,2.018-1.636,3.654-3.654,3.654
				C391.478,134.782,389.839,133.146,389.839,131.127z"/>
		</g>
		<g>
			<path style="fill:#CBDBEF;" d="M90.089,120.79c0,3.269,2.662,5.931,5.928,5.931c3.269,0,5.928-2.662,5.928-5.931
				c0-3.267-2.659-5.931-5.928-5.931C92.751,114.858,90.089,117.523,90.089,120.79z M92.363,120.79c0-2.015,1.639-3.657,3.654-3.657
				c2.018,0,3.654,1.642,3.654,3.657c0,2.018-1.636,3.654-3.654,3.654C94.002,124.444,92.363,122.808,92.363,120.79z"/>
		</g>
		<g>
			<path style="fill:#CBDBEF;" d="M34.559,311.494c-0.83,0-1.495,0.677-1.495,1.501c0,0.833,0.665,1.489,1.495,1.489h14.945
				c0.827,0,1.498-0.656,1.498-1.489c0-0.824-0.67-1.501-1.498-1.501H34.559z"/>
		</g>
		<g>
			<path style="fill:#CBDBEF;" d="M55.911,311.494c-0.821,0-1.495,0.677-1.495,1.501c0,0.833,0.674,1.489,1.495,1.489h2.743
				c0.827,0,1.492-0.656,1.492-1.489c0-0.824-0.665-1.501-1.492-1.501H55.911z"/>
		</g>
		<g>
			<g>
				<path style="fill:#CBDBEF;" d="M201.758,89.793c-0.83,0-1.495,0.677-1.495,1.501c0,0.833,0.665,1.489,1.495,1.489h14.945
					c0.827,0,1.498-0.656,1.498-1.489c0-0.824-0.67-1.501-1.498-1.501H201.758z"/>
			</g>
			<g>
				<path style="fill:#CBDBEF;" d="M223.11,89.793c-0.821,0-1.495,0.677-1.495,1.501c0,0.833,0.674,1.489,1.495,1.489h2.743
					c0.827,0,1.492-0.656,1.492-1.489c0-0.824-0.665-1.501-1.492-1.501H223.11z"/>
			</g>
		</g>
		<g>
			<path style="fill:#CBDBEF;" d="M42.481,191.797c-0.83,0-1.495,0.677-1.495,1.501c0,0.833,0.665,1.489,1.495,1.489h14.945
				c0.827,0,1.498-0.656,1.498-1.489c0-0.824-0.67-1.501-1.498-1.501H42.481z"/>
		</g>
		<g>
			<path style="fill:#CBDBEF;" d="M69.341,191.797c-0.821,0-1.495,0.677-1.495,1.501c0,0.833,0.674,1.489,1.495,1.489h2.743
				c0.827,0,1.492-0.656,1.492-1.489c0-0.824-0.665-1.501-1.492-1.501H69.341z"/>
		</g>
	</g>
	<g>
		<g>
			<g>
				<g>
					<path style="fill:#93BBE5;" d="M379.675,407.23c0,1.988-1.806,3.604-4.034,3.604H124.358c-2.227,0-4.034-1.616-4.034-3.604
						V255.222c0-1.988,1.806-3.603,4.034-3.603h251.283c2.228,0,4.034,1.615,4.034,3.603V407.23z"/>
					<path style="fill:#EEF5FF;" d="M366.483,399.038c0,0.004-0.004,0.008-0.009,0.008h-232.95c-0.004,0-0.008-0.003-0.008-0.007
						V263.407h232.966V399.038z"/>
					<path style="fill:#184785;" d="M380.094,424.563H119.906c-6.458,0-11.694-5.236-11.694-11.694l0,0
						c0-1.147,0.93-2.076,2.076-2.076h279.424c1.147,0,2.076,0.93,2.076,2.076l0,0C391.788,419.327,386.553,424.563,380.094,424.563
						z"/>
					<path style="fill:#D1E1E8;" d="M268.631,410.833v0.006c0,3.927-3.183,7.11-7.11,7.11h-23.035c-3.93,0-7.117-3.186-7.117-7.117
						l0,0"/>
				</g>
			</g>
			<g>
				<rect x="156.518" y="277.851" style="fill:none;" width="186.964" height="100.032"/>
				<rect x="156.518" y="277.851" style="fill:#DDE9FC;" width="186.964" height="11.341"/>
				<g>
					<path style="fill:#F89D13;" d="M163.185,283.963c0,1.028-0.833,1.861-1.861,1.861c-1.028,0-1.861-0.833-1.861-1.861
						s0.833-1.861,1.861-1.861C162.352,282.102,163.185,282.935,163.185,283.963z"/>
					<circle style="fill:#EAAA5E;" cx="167.224" cy="283.963" r="1.861"/>
					<circle style="fill:#39B54A;" cx="173.123" cy="283.963" r="1.861"/>
				</g>
				<g>
					<rect x="211.759" y="298.432" style="fill:#DDE9FC;" width="124.969" height="4.817"/>
					<rect x="211.759" y="308.758" style="fill:#DDE9FC;" width="124.969" height="4.817"/>
					<rect x="211.759" y="319.084" style="fill:#DDE9FC;" width="124.969" height="4.817"/>
					<rect x="211.759" y="329.409" style="fill:#DDE9FC;" width="124.969" height="4.817"/>
					<rect x="211.759" y="339.735" style="fill:#DDE9FC;" width="124.969" height="4.817"/>
					<rect x="211.759" y="350.06" style="fill:#DDE9FC;" width="124.969" height="4.817"/>
					<rect x="211.759" y="360.386" style="fill:#DDE9FC;" width="124.969" height="4.817"/>
				</g>
				<rect x="162.03" y="298.432" style="fill:#DDE9FC;" width="44.821" height="66.771"/>
			</g>
		</g>
		<g>
			<g>
				<path style="fill:#184785;" d="M145.073,309.545c2.854,1.293,5.814,2.482,7.659,4.371c1.865,1.846,2.653,4.393,1.168,8.292
					c-1.483,3.899-3.824,5.227-6.601,5.262c-2.761-0.008-5.934-1.284-8.998-2.672c-6.149-2.693-12.441-5.955-8.526-13.34
					C133.675,304.094,139.32,307.023,145.073,309.545z M143.776,312.466c-6.608-2.953-9.186-3.855-11.319,0.366
					c-2.114,4.176,0.229,5.957,7.141,9.047c6.928,3.044,9.777,3.608,11.497-0.765C152.817,316.729,150.405,315.379,143.776,312.466z
					"/>
				<path style="fill:#184785;" d="M134.73,311.886c0,0-2.274-1.105-4.505-2.28c-2.237-1.17-4.411-2.414-4.411-2.412
					c-0.705-0.409-1.625-0.122-2.09,0.624c-0.468,0.75-0.238,1.72,0.496,2.145c0-0.001,2.242,1.279,4.517,2.471
					c2.277,1.198,4.583,2.32,4.583,2.32c0.752,0.371,1.674,0.026,2.055-0.768C135.759,313.191,135.471,312.249,134.73,311.886z"/>
			</g>
			<g>
				<path style="fill:#184785;" d="M175.496,320.736c6.033,1.822,12.322,3.399,10.35,11.481c-1.984,8.132-8.733,6.441-15.14,4.507
					c-1.6-0.487-3.214-0.979-4.693-1.565c-1.473-0.617-2.805-1.344-3.852-2.242c-2.105-1.788-3.024-4.324-1.627-8.267
					c1.391-3.922,3.638-5.342,6.271-5.577c1.318-0.113,2.731,0.092,4.193,0.431C172.471,319.814,173.99,320.277,175.496,320.736z
					 M174.578,323.798c-1.735-0.529-3.212-0.949-4.471-1.211c-1.251-0.28-2.286-0.424-3.155-0.342
					c-1.735,0.157-2.807,1.156-3.567,3.382c-0.76,2.228-0.504,3.669,0.842,4.856c0.674,0.59,1.614,1.131,2.844,1.644
					c1.237,0.497,2.749,0.987,4.552,1.535c0.905,0.275,1.735,0.521,2.507,0.734c0.779,0.19,1.492,0.35,2.145,0.47
					c1.311,0.24,2.39,0.326,3.276,0.205c1.774-0.239,2.775-1.298,3.371-3.576c0.588-2.277,0.244-3.706-1.115-4.804
					c-0.68-0.55-1.617-1.015-2.819-1.464c-0.604-0.226-1.271-0.445-2.01-0.669C176.248,324.314,175.449,324.062,174.578,323.798z"/>
				<path style="fill:#184785;" d="M165.126,323.377c0,0-0.83-0.265-2.078-0.664c-1.248-0.396-2.915-0.92-4.557-1.507
					c-3.299-1.142-6.592-2.284-6.592-2.284c-1.066-0.393-2.284,0.167-2.721,1.259c-0.436,1.09,0.081,2.304,1.163,2.702
					c0,0,3.332,1.156,6.67,2.312c1.664,0.594,3.348,1.124,4.611,1.525c1.264,0.403,2.105,0.672,2.105,0.672
					c1.098,0.351,2.297-0.265,2.675-1.375C166.782,324.905,166.211,323.722,165.126,323.377z"/>
			</g>
			<g>
				<path style="fill:#184785;" d="M207.113,328.166c3.096,0.597,6.267,0.997,8.52,2.383c2.252,1.372,3.628,3.689,3.121,7.81
					c-0.511,4.162-2.458,5.979-5.141,6.653c-2.673,0.664-6.06,0.231-9.344-0.399c-1.65-0.292-3.311-0.588-4.85-0.994
					c-1.542-0.395-2.944-1-4.09-1.762c-2.296-1.549-3.517-3.938-2.606-8.011c0.91-4.071,2.978-5.768,5.558-6.291
					c1.295-0.274,2.715-0.196,4.214-0.075C203.998,327.613,205.56,327.89,207.113,328.166z M206.566,331.315
					c-7.156-1.211-9.902-1.485-10.892,3.152c-0.975,4.564,1.7,5.735,9.139,6.996c3.705,0.699,6.307,0.892,8.038,0.447
					c1.734-0.458,2.603-1.635,2.919-3.967c0.314-2.33-0.201-3.704-1.682-4.623C212.603,332.389,210.138,331.992,206.566,331.315z"/>
				<path style="fill:#184785;" d="M197.186,332.156c0,0-3.418-0.658-6.837-1.317c-1.712-0.313-3.4-0.738-4.676-1.007
					c-1.271-0.283-2.121-0.471-2.121-0.471c-1.105-0.246-2.241,0.432-2.537,1.512c-0.295,1.08,0.376,2.158,1.496,2.407
					c0,0,0.861,0.191,2.145,0.478c1.292,0.27,2.999,0.7,4.731,1.016c3.459,0.666,6.913,1.333,6.913,1.333
					c1.129,0.218,2.236-0.492,2.476-1.583C199.011,333.434,198.3,332.372,197.186,332.156z"/>
			</g>
			<g>
				<path style="fill:#184785;" d="M239.372,331.771c3.15,0.101,6.337,0.204,8.742,1.328c2.402,1.083,4.048,3.117,4.054,7.302
					c0.006,4.158-1.708,6.299-4.285,7.3c-2.575,0.961-5.991,0.85-9.334,0.74c-3.341-0.183-6.746-0.46-9.215-1.67
					c-1.234-0.6-2.229-1.472-2.857-2.732c-0.63-1.248-0.896-2.849-0.694-4.926c0.204-2.077,0.773-3.589,1.597-4.681
					c0.823-1.079,1.908-1.77,3.159-2.216C233.044,331.336,236.226,331.598,239.372,331.771z M239.213,334.963
					c-7.243-0.462-10.011-0.247-10.43,4.45c-0.419,4.674,2.39,5.359,9.92,5.836c7.547,0.24,10.406-0.09,10.451-4.828
					C249.196,335.75,246.468,335.19,239.213,334.963z"/>
				<path style="fill:#184785;" d="M229.983,337.102c0-0.002-3.578-0.182-7.136-0.545c-3.562-0.319-7.124-0.639-7.124-0.639
					c-1.165-0.104-2.228,0.652-2.382,1.685c-0.154,1.033,0.671,1.959,1.851,2.062c0,0,3.605,0.324,7.205,0.647
					c3.601,0.365,7.219,0.549,7.219,0.549c1.178,0.071,2.215-0.716,2.307-1.754C232.014,338.07,231.145,337.17,229.983,337.102z"/>
			</g>
			<g>
				<path style="fill:#184785;" d="M271.801,331.334c3.138-0.284,6.317-0.569,8.842,0.252c2.514,0.756,4.406,2.578,4.933,6.726
					c0.525,4.131-0.909,6.457-3.34,7.791c-2.439,1.267-5.842,1.574-9.178,1.872c-1.666,0.178-3.355,0.244-4.952,0.188
					c-1.597-0.055-3.103-0.243-4.402-0.705c-2.603-0.924-4.367-2.915-4.467-7.107c-0.102-4.149,1.49-6.33,3.862-7.483
					c1.191-0.579,2.578-0.906,4.067-1.107C268.652,331.561,270.238,331.504,271.801,331.334z M272.044,334.521
					c-1.806,0.193-3.338,0.26-4.607,0.44c-1.271,0.175-2.284,0.427-3.066,0.813c-1.561,0.775-2.208,2.094-2.121,4.445
					c0.083,2.352,0.836,3.605,2.52,4.225c0.84,0.31,1.913,0.463,3.246,0.513c1.333,0.047,2.928,0.032,4.803-0.166
					c7.522-0.681,10.321-1.358,9.77-6.079C282.049,334.087,279.27,333.863,272.044,334.521z"/>
				<path style="fill:#184785;" d="M263.085,338.29c0,0-0.914,0.03-2.287,0.075c-1.373,0.032-3.203,0.136-5.034,0.137
					c-3.67,0.017-7.332,0.035-7.332,0.035c-1.194,0.005-2.167,0.727-2.167,1.609c-0.003,0.881,0.98,1.592,2.192,1.586
					c0,0,3.71-0.016,7.419-0.035c1.853-0.001,3.702-0.104,5.096-0.137c1.388-0.047,2.316-0.077,2.316-0.077
					c1.208-0.04,2.138-0.787,2.074-1.668C265.299,338.934,264.277,338.25,263.085,338.29z"/>
			</g>
			<g>
				<path style="fill:#184785;" d="M303.93,326.897c6.135-1.418,12.464-2.778,14.54,5.209c2.122,8.166-4.685,9.65-11.211,11.146
					c-3.293,0.609-6.657,1.201-9.352,0.628c-1.346-0.287-2.522-0.871-3.436-1.9c-0.917-1.044-1.575-2.546-1.888-4.604
					c-0.314-2.067-0.135-3.657,0.394-4.927c0.521-1.287,1.398-2.24,2.504-2.968C297.691,328.02,300.832,327.468,303.93,326.897z
					 M304.566,330.03c-7.137,1.295-9.76,2.206-9.011,6.855c0.751,4.641,3.639,4.589,11.065,3.236
					c7.366-1.667,10.044-2.734,8.922-7.303C314.421,328.25,311.644,328.422,304.566,330.03z"/>
				<path style="fill:#184785;" d="M295.961,335.425c0,0-0.933,0.111-2.332,0.28c-1.399,0.167-3.262,0.407-5.148,0.553
					c-3.762,0.336-7.517,0.672-7.517,0.672c-1.225,0.11-2.086,0.909-1.924,1.784c0.164,0.876,1.303,1.495,2.546,1.384
					c0,0,3.804-0.34,7.607-0.68c1.906-0.148,3.79-0.389,5.208-0.56c1.417-0.169,2.362-0.282,2.362-0.282
					c1.234-0.148,2.046-0.972,1.814-1.841C298.349,335.866,297.176,335.279,295.961,335.425z"/>
			</g>
			<g>
				<path style="fill:#184785;" d="M335.257,318.414c1.495-0.492,3.01-0.976,4.471-1.331c1.444-0.412,2.848-0.668,4.165-0.611
					c2.626,0.115,4.923,1.474,6.44,5.362c1.512,3.888,0.667,6.442-1.361,8.33c-1.015,0.943-2.317,1.719-3.758,2.405
					c-1.46,0.632-3.07,1.147-4.657,1.671c-3.181,1.03-6.414,2.125-9.159,1.872c-2.768-0.317-4.985-1.869-6.111-5.886
					c-1.129-4.017-0.108-6.463,1.927-8.105C329.232,320.413,332.256,319.384,335.257,318.414z M336.271,321.446
					c-3.453,1.129-5.794,2.013-7.113,3.18c-1.319,1.149-1.635,2.527-0.968,4.798c0.659,2.245,1.714,3.332,3.492,3.505
					c1.771,0.156,4.277-0.546,7.859-1.719c1.79-0.588,3.295-1.106,4.516-1.633c1.2-0.58,2.126-1.148,2.777-1.77
					c1.3-1.243,1.508-2.699,0.68-4.9c-0.829-2.202-1.932-3.159-3.666-3.248c-0.868-0.043-1.895,0.132-3.13,0.479
					C339.467,320.433,337.997,320.88,336.271,321.446z"/>
				<path style="fill:#184785;" d="M328.25,327.235l-14.586,3.468c-1.186,0.283-1.887,1.406-1.565,2.506
					c0.324,1.099,1.565,1.759,2.771,1.473l14.757-3.509c1.189-0.327,1.836-1.485,1.448-2.567
					C330.687,327.52,329.425,326.913,328.25,327.235z"/>
			</g>
			<g>
				<path style="fill:#184785;" d="M365.437,306.337c5.665-2.804,11.493-5.678,15.397,1.699c3.905,7.375-2.312,10.453-8.299,13.407
					c-1.479,0.774-3.057,1.377-4.554,1.914c-1.51,0.515-2.98,0.873-4.356,0.904c-2.758,0.066-5.127-1.178-6.724-5.032
					c-1.597-3.854-0.885-6.441,0.923-8.368c0.907-0.964,2.09-1.767,3.412-2.485C362.545,307.635,364.038,307.073,365.437,306.337z
					 M366.797,309.23c-0.808,0.417-1.568,0.77-2.272,1.087c-0.699,0.328-1.329,0.641-1.893,0.95
					c-1.123,0.616-1.985,1.212-2.58,1.852c-1.185,1.28-1.313,2.742-0.389,4.903c0.925,2.164,2.077,3.065,3.87,3.047
					c0.894-0.01,1.952-0.249,3.211-0.673c0.631-0.213,1.318-0.472,2.057-0.773c0.746-0.291,1.539-0.643,2.377-1.073
					c6.754-3.336,9.106-4.996,6.952-9.181C375.981,305.186,373.317,306.005,366.797,309.23z"/>
				<path style="fill:#184785;" d="M359.361,315.706c0,0-3.452,1.294-6.907,2.589c-1.713,0.675-3.474,1.25-4.799,1.673
					c-1.319,0.431-2.2,0.719-2.2,0.719c-1.145,0.374-1.693,1.533-1.219,2.583c0.474,1.051,1.799,1.596,2.96,1.216
					c0,0,0.891-0.292,2.227-0.728c1.338-0.428,3.12-1.01,4.851-1.692c3.49-1.307,6.983-2.616,6.983-2.616
					c1.138-0.428,1.633-1.61,1.104-2.64C361.83,315.778,360.487,315.284,359.361,315.706z"/>
				<path style="fill:#184785;" d="M381.388,306.507c0,0-1.947,0.84-3.274,1.261c-1.318,0.432-2.198,0.72-2.198,0.72
					c-1.149,0.375-1.697,1.533-1.223,2.584c0.475,1.05,1.799,1.595,2.962,1.214c0,0,0.89-0.291,2.228-0.727
					c1.338-0.429,3.4-1.309,3.4-1.309c1.137-0.427,1.632-1.609,1.102-2.641C383.856,306.58,382.513,306.084,381.388,306.507z"/>
			</g>
		</g>
		<g>
			<path style="fill:#F89D13;" d="M250,281.983c-27.196,0-49.243,22.047-49.243,49.243c0,27.196,22.047,49.243,49.243,49.243
				s49.243-22.047,49.243-49.243C299.243,304.03,277.196,281.983,250,281.983z M250,291.406c9.426,0,18.086,3.278,24.907,8.753
				l-55.974,55.974c-5.475-6.82-8.753-15.48-8.753-24.907C210.18,309.234,228.008,291.406,250,291.406z M250,371.046
				c-9.106,0-17.497-3.059-24.205-8.202l55.823-55.823c5.143,6.708,8.202,15.099,8.202,24.205
				C289.82,353.218,271.992,371.046,250,371.046z"/>
			<g>
				<path style="fill:#BCBEC0;" d="M265.337,324.391h-32.465v-12.585c0-8.951,7.282-16.233,16.233-16.233
					c8.951,0,16.233,7.282,16.233,16.233V324.391z M237.25,320.014h23.71v-8.207c0-6.537-5.318-11.855-11.855-11.855
					c-6.537,0-11.855,5.318-11.855,11.855V320.014z"/>
				<path style="fill:#297EEC;" d="M265.593,357.934h-32.976c-2.384,0-4.317-1.933-4.317-4.317v-32.976
					c0-2.384,1.933-4.317,4.317-4.317h32.976c2.384,0,4.317,1.933,4.317,4.317v32.976
					C269.91,356.001,267.977,357.934,265.593,357.934z"/>
				<path style="fill:#297EEC;" d="M269.91,353.617v-32.976c0-2.384-1.933-4.317-4.317-4.317H248.85v41.61h16.743
					C267.977,357.934,269.91,356.001,269.91,353.617z"/>
				<path style="fill:#184785;" d="M255.087,348.817l-3.604-15.904c1.643-0.881,2.741-2.646,2.656-4.659
					c-0.108-2.574-2.222-4.698-4.796-4.816c-2.891-0.133-5.277,2.171-5.277,5.033c0,1.923,1.077,3.593,2.661,4.442l-3.604,15.904
					c-0.233,1.029,0.549,2.009,1.605,2.009h8.755C254.538,350.826,255.32,349.846,255.087,348.817z"/>
			</g>
		</g>
	</g>
</g>
<g id="TEXTS">
</g>
</svg>
